<svg width="645" height="393" viewBox="0 0 645 393" fill="none" xmlns="http://www.w3.org/2000/svg">
<g clip-path="url(#clip0_42_3)">
<g filter="url(#filter0_d_42_3)">
<path d="M611.111 20.5764H118.04C113.272 20.5764 109.412 24.5825 109.412 29.5275V353.77C109.412 358.715 113.272 362.721 118.04 362.721H611.111C615.879 362.721 619.739 358.715 619.739 353.77V29.5275C619.739 24.5825 615.879 20.5764 611.111 20.5764Z" fill="white"/>
</g>
<path d="M604.248 27.8896H124.906C120.264 27.8896 116.508 31.7288 116.508 36.4547V346.832C116.508 351.558 120.264 355.397 124.906 355.397H604.248C608.891 355.397 612.646 351.558 612.646 346.832V36.4547C612.646 31.7288 608.891 27.8896 604.248 27.8896Z" fill="#F8F8F8"/>
<path d="M594.93 56.4746H477.846C474.199 56.4746 471.242 59.4312 471.242 63.0784V333.906C471.242 337.553 474.199 340.51 477.846 340.51H594.93C598.577 340.51 601.534 337.553 601.534 333.906V63.0784C601.534 59.4312 598.577 56.4746 594.93 56.4746Z" fill="white"/>
<path d="M575.151 139.037C580.354 139.037 584.572 134.82 584.572 129.617C584.572 124.414 580.354 120.196 575.151 120.196C569.948 120.196 565.73 124.414 565.73 129.617C565.73 134.82 569.948 139.037 575.151 139.037Z" fill="#EEEEEE"/>
<path d="M575.151 169.97C580.354 169.97 584.572 165.752 584.572 160.549C584.572 155.346 580.354 151.128 575.151 151.128C569.948 151.128 565.73 155.346 565.73 160.549C565.73 165.752 569.948 169.97 575.151 169.97Z" fill="#EEEEEE"/>
<path d="M575.151 200.892C580.354 200.892 584.572 196.674 584.572 191.471C584.572 186.268 580.354 182.051 575.151 182.051C569.948 182.051 565.73 186.268 565.73 191.471C565.73 196.674 569.948 200.892 575.151 200.892Z" fill="#414772"/>
<path d="M575.151 231.814C580.354 231.814 584.572 227.596 584.572 222.393C584.572 217.19 580.354 212.972 575.151 212.972C569.948 212.972 565.73 217.19 565.73 222.393C565.73 227.596 569.948 231.814 575.151 231.814Z" fill="#EEEEEE"/>
<path d="M575.151 262.736C580.354 262.736 584.572 258.518 584.572 253.315C584.572 248.112 580.354 243.895 575.151 243.895C569.948 243.895 565.73 248.112 565.73 253.315C565.73 258.518 569.948 262.736 575.151 262.736Z" fill="#EEEEEE"/>
<path d="M575.151 293.668C580.354 293.668 584.572 289.45 584.572 284.247C584.572 279.044 580.354 274.827 575.151 274.827C569.948 274.827 565.73 279.044 565.73 284.247C565.73 289.45 569.948 293.668 575.151 293.668Z" fill="#EEEEEE"/>
<path d="M575.151 324.59C580.354 324.59 584.572 320.372 584.572 315.169C584.572 309.967 580.354 305.749 575.151 305.749C569.948 305.749 565.73 309.967 565.73 315.169C565.73 320.372 569.948 324.59 575.151 324.59Z" fill="#EEEEEE"/>
<path d="M557.446 126H506.554C505.696 126 505 126.817 505 127.824V131.176C505 132.183 505.696 133 506.554 133H557.446C558.304 133 559 132.183 559 131.176V127.824C559 126.817 558.304 126 557.446 126Z" fill="#F8F8F8"/>
<path d="M557.935 157H523.065C522.477 157 522 157.817 522 158.824V162.176C522 163.183 522.477 164 523.065 164H557.935C558.523 164 559 163.183 559 162.176V158.824C559 157.817 558.523 157 557.935 157Z" fill="#F8F8F8"/>
<path d="M556.904 188.268H502.238C501.316 188.268 500.568 189.016 500.568 189.938V193.005C500.568 193.927 501.316 194.674 502.238 194.674H556.904C557.826 194.674 558.573 193.927 558.573 193.005V189.938C558.573 189.016 557.826 188.268 556.904 188.268Z" fill="#414772"/>
<path d="M558.223 219H532.777C532.348 219 532 219.817 532 220.824V224.176C532 225.183 532.348 226 532.777 226H558.223C558.652 226 559 225.183 559 224.176V220.824C559 219.817 558.652 219 558.223 219Z" fill="#F8F8F8"/>
<path d="M557.446 250H506.554C505.696 250 505 250.817 505 251.824V255.176C505 256.183 505.696 257 506.554 257H557.446C558.304 257 559 256.183 559 255.176V251.824C559 250.817 558.304 250 557.446 250Z" fill="#F8F8F8"/>
<path d="M557.561 281H510.439C509.644 281 509 281.7 509 282.564V285.436C509 286.3 509.644 287 510.439 287H557.561C558.356 287 559 286.3 559 285.436V282.564C559 281.7 558.356 281 557.561 281Z" fill="#F8F8F8"/>
<path d="M556.904 311.967H502.238C501.316 311.967 500.568 312.714 500.568 313.636V316.703C500.568 317.625 501.316 318.372 502.238 318.372H556.904C557.826 318.372 558.573 317.625 558.573 316.703V313.636C558.573 312.714 557.826 311.967 556.904 311.967Z" fill="#F8F8F8"/>
<path d="M452.412 56.4746H131.665C129.078 56.4746 126.98 58.5718 126.98 61.1588V97.2657C126.98 99.8527 129.078 101.95 131.665 101.95H452.412C454.999 101.95 457.096 99.8527 457.096 97.2657V61.1588C457.096 58.5718 454.999 56.4746 452.412 56.4746Z" fill="white"/>
<path d="M452.412 113.144H131.665C129.078 113.144 126.98 115.241 126.98 117.828V153.935C126.98 156.522 129.078 158.619 131.665 158.619H452.412C454.999 158.619 457.096 156.522 457.096 153.935V117.828C457.096 115.241 454.999 113.144 452.412 113.144Z" fill="white"/>
<path d="M452.412 303.934H131.665C129.078 303.934 126.98 306.031 126.98 308.618V335.826C126.98 338.413 129.078 340.51 131.665 340.51H452.412C454.999 340.51 457.096 338.413 457.096 335.826V308.618C457.096 306.031 454.999 303.934 452.412 303.934Z" fill="white"/>
<path d="M227.32 169.813H131.665C129.078 169.813 126.98 171.91 126.98 174.497V288.045C126.98 290.632 129.078 292.729 131.665 292.729H227.32C229.907 292.729 232.004 290.632 232.004 288.045V174.497C232.004 171.91 229.907 169.813 227.32 169.813Z" fill="white"/>
<path d="M339.867 169.813H244.212C241.625 169.813 239.527 171.91 239.527 174.497V288.045C239.527 290.632 241.625 292.729 244.212 292.729H339.867C342.454 292.729 344.551 290.632 344.551 288.045V174.497C344.551 171.91 342.454 169.813 339.867 169.813Z" fill="white"/>
<path d="M452.412 169.813H356.756C354.169 169.813 352.072 171.91 352.072 174.497V288.045C352.072 290.632 354.169 292.729 356.756 292.729H452.412C454.999 292.729 457.096 290.632 457.096 288.045V174.497C457.096 171.91 454.999 169.813 452.412 169.813Z" fill="white"/>
<path d="M444.525 91.2567C446.582 91.2567 448.25 89.5892 448.25 87.5323C448.25 85.4753 446.582 83.8079 444.525 83.8079C442.468 83.8079 440.801 85.4753 440.801 87.5323C440.801 89.5892 442.468 91.2567 444.525 91.2567Z" fill="#EEEEEE"/>
<path d="M446.58 67.168H363.277C362.355 67.168 361.607 67.9153 361.607 68.8372V72.9476C361.607 73.8695 362.355 74.6168 363.277 74.6168H446.58C447.502 74.6168 448.249 73.8695 448.249 72.9476V68.8372C448.249 67.9153 447.502 67.168 446.58 67.168Z" fill="#F8F8F8"/>
<path d="M435.022 83.8079H351.718C350.796 83.8079 350.049 84.5552 350.049 85.4771V89.5875C350.049 90.5093 350.796 91.2567 351.718 91.2567H435.022C435.943 91.2567 436.691 90.5093 436.691 89.5875V85.4771C436.691 84.5552 435.943 83.8079 435.022 83.8079Z" fill="#F8F8F8"/>
<path d="M141.973 86.7702H158.498C161.707 86.7702 164.309 84.1685 164.309 80.9593V78.6015C164.309 75.3922 161.707 72.7906 158.498 72.7906H141.973C138.763 72.7906 136.162 75.3922 136.162 78.6015V80.9593C136.162 84.1685 138.763 86.7702 141.973 86.7702Z" fill="#F8F8F8"/>
<path d="M157.006 85.4977C160.163 85.4977 162.723 82.9382 162.723 79.7807C162.723 76.6233 160.163 74.0637 157.006 74.0637C153.849 74.0637 151.289 76.6233 151.289 79.7807C151.289 82.9382 153.849 85.4977 157.006 85.4977Z" fill="#EEEEEE" stroke="#E6E6E6" stroke-width="0.521625" stroke-miterlimit="10"/>
<path d="M158.51 128.887H141.985C138.776 128.887 136.174 131.488 136.174 134.698V137.055C136.174 140.265 138.776 142.866 141.985 142.866H158.51C161.719 142.866 164.321 140.265 164.321 137.055V134.698C164.321 131.488 161.719 128.887 158.51 128.887Z" fill="#F8F8F8"/>
<path d="M143.487 141.593C146.644 141.593 149.204 139.034 149.204 135.876C149.204 132.719 146.644 130.159 143.487 130.159C140.329 130.159 137.77 132.719 137.77 135.876C137.77 139.034 140.329 141.593 143.487 141.593Z" fill="#414772"/>
<path d="M331.351 276.183C330.725 276.183 330.225 276.684 330.225 277.31C330.225 277.936 330.725 278.437 331.351 278.437C331.977 278.437 332.478 277.936 332.478 277.31C332.478 276.684 331.977 276.183 331.351 276.183ZM331.351 277.873C331.038 277.873 330.788 277.623 330.788 277.31C330.788 276.997 331.038 276.746 331.351 276.746C331.664 276.746 331.915 276.997 331.915 277.31C331.915 277.623 331.664 277.873 331.351 277.873Z" fill="#D5D5D5"/>
<path d="M333.97 277.852L333.845 277.779C333.897 277.477 333.897 277.164 333.845 276.851L333.97 276.778C334.377 276.548 334.512 276.027 334.283 275.62C334.053 275.213 333.532 275.077 333.125 275.307L333 275.38C332.76 275.182 332.489 275.025 332.196 274.921V274.775C332.196 274.305 331.821 273.93 331.351 273.93C330.882 273.93 330.506 274.305 330.506 274.775V274.921C330.214 275.025 329.943 275.182 329.703 275.38L329.578 275.307C329.171 275.077 328.66 275.213 328.42 275.62C328.19 276.027 328.326 276.538 328.733 276.778L328.858 276.851C328.806 277.153 328.806 277.466 328.858 277.779L328.733 277.852C328.326 278.082 328.19 278.603 328.42 279.01C328.649 279.417 329.171 279.553 329.578 279.323L329.703 279.25C329.943 279.448 330.214 279.605 330.506 279.709V279.855C330.506 280.325 330.882 280.7 331.351 280.7C331.821 280.7 332.196 280.325 332.196 279.855V279.709C332.489 279.605 332.76 279.448 333 279.25L333.125 279.323C333.532 279.553 334.043 279.417 334.283 279.01C334.512 278.603 334.377 278.092 333.97 277.852ZM333.25 276.788C333.344 277.132 333.344 277.498 333.25 277.842C333.219 277.967 333.271 278.092 333.386 278.165L333.688 278.343C333.824 278.416 333.866 278.593 333.793 278.729C333.72 278.864 333.542 278.906 333.407 278.833L333.104 278.656C332.989 278.593 332.854 278.614 332.76 278.697C332.509 278.958 332.196 279.136 331.852 279.229C331.727 279.261 331.644 279.375 331.644 279.501V279.855C331.644 280.012 331.518 280.137 331.362 280.137C331.205 280.137 331.08 280.012 331.08 279.855V279.501C331.08 279.375 330.997 279.261 330.872 279.229C330.527 279.136 330.214 278.958 329.964 278.697C329.87 278.603 329.734 278.583 329.62 278.656L329.317 278.833C329.181 278.916 329.015 278.864 328.931 278.729C328.848 278.593 328.9 278.426 329.035 278.343L329.338 278.165C329.453 278.103 329.505 277.967 329.474 277.842C329.38 277.498 329.38 277.132 329.474 276.788C329.505 276.663 329.453 276.538 329.338 276.475L329.035 276.298C328.9 276.225 328.858 276.047 328.931 275.912C329.004 275.776 329.181 275.735 329.317 275.808L329.62 275.985C329.734 276.047 329.87 276.027 329.964 275.943C330.214 275.682 330.527 275.505 330.872 275.411C330.997 275.38 331.08 275.265 331.08 275.14V274.785C331.08 274.629 331.205 274.503 331.362 274.503C331.518 274.503 331.644 274.629 331.644 274.785V275.14C331.644 275.265 331.727 275.38 331.852 275.411C332.196 275.505 332.509 275.682 332.76 275.943C332.854 276.037 332.989 276.058 333.104 275.985L333.407 275.808C333.542 275.724 333.709 275.776 333.793 275.912C333.876 276.047 333.824 276.214 333.688 276.298L333.386 276.475C333.271 276.538 333.219 276.673 333.261 276.788H333.25Z" fill="#D5D5D5"/>
<path d="M447.114 144.974C447.114 145.109 447 145.224 446.864 145.224H446.353C446.217 145.224 446.102 145.109 446.102 144.974C446.102 144.838 446.217 144.723 446.353 144.723H446.864C447 144.723 447.114 144.838 447.114 144.974ZM448.251 144.723V145.986C448.251 146.549 447.792 146.998 447.239 146.998H443.192C442.628 146.998 442.18 146.539 442.18 145.986V144.723C442.18 144.16 442.639 143.712 443.192 143.712H443.442V141.938C443.442 141.375 443.901 140.926 444.454 140.926H445.977C446.54 140.926 446.989 141.385 446.989 141.938V143.712H447.239C447.803 143.712 448.251 144.171 448.251 144.723ZM443.943 143.712H446.478V141.938C446.478 141.656 446.248 141.427 445.967 141.427H444.444C444.162 141.427 443.932 141.656 443.932 141.938V143.712H443.943ZM443.192 146.487H444.965V144.212H443.192C442.91 144.212 442.68 144.442 442.68 144.723V145.986C442.68 146.267 442.91 146.497 443.192 146.497V146.487ZM447.74 144.723C447.74 144.442 447.511 144.212 447.229 144.212H445.456V146.487H447.229C447.511 146.487 447.74 146.257 447.74 145.975V144.713V144.723ZM444.068 144.723H443.557C443.421 144.723 443.306 144.838 443.306 144.974C443.306 145.109 443.421 145.224 443.557 145.224H444.068C444.204 145.224 444.318 145.109 444.318 144.974C444.318 144.838 444.204 144.723 444.068 144.723ZM445.716 142.188C445.716 142.053 445.602 141.938 445.466 141.938H444.955C444.819 141.938 444.704 142.053 444.704 142.188C444.704 142.324 444.819 142.439 444.955 142.439H445.466C445.602 142.439 445.716 142.324 445.716 142.188Z" fill="#D5D5D5"/>
<path d="M141.973 285.374H158.498C161.707 285.374 164.309 282.772 164.309 279.563V277.205C164.309 273.996 161.707 271.394 158.498 271.394H141.973C138.763 271.394 136.162 273.996 136.162 277.205V279.563C136.162 282.772 138.763 285.374 141.973 285.374Z" fill="#F8F8F8"/>
<path d="M157.006 284.112C160.163 284.112 162.723 281.552 162.723 278.395C162.723 275.237 160.163 272.678 157.006 272.678C153.849 272.678 151.289 275.237 151.289 278.395C151.289 281.552 153.849 284.112 157.006 284.112Z" fill="#EEEEEE" stroke="#E6E6E6" stroke-width="0.521625" stroke-miterlimit="10"/>
<path d="M179.489 225.387C188.2 225.387 195.263 218.325 195.263 209.613C195.263 200.902 188.2 193.839 179.489 193.839C170.777 193.839 163.715 200.902 163.715 209.613C163.715 218.325 170.777 225.387 179.489 225.387Z" fill="#EEEEEE"/>
<path d="M221.145 231.271H137.841C136.919 231.271 136.172 232.019 136.172 232.94V237.051C136.172 237.973 136.919 238.72 137.841 238.72H221.145C222.066 238.72 222.814 237.973 222.814 237.051V232.94C222.814 232.019 222.066 231.271 221.145 231.271Z" fill="#F8F8F8"/>
<path d="M218.453 282.119C220.51 282.119 222.177 280.452 222.177 278.395C222.177 276.338 220.51 274.67 218.453 274.67C216.396 274.67 214.729 276.338 214.729 278.395C214.729 280.452 216.396 282.119 218.453 282.119Z" fill="#EEEEEE"/>
<path d="M208.95 274.67H174.304C173.382 274.67 172.635 275.418 172.635 276.34V280.45C172.635 281.372 173.382 282.119 174.304 282.119H208.95C209.872 282.119 210.62 281.372 210.62 280.45V276.34C210.62 275.418 209.872 274.67 208.95 274.67Z" fill="#F8F8F8"/>
<path d="M270.082 271.405H253.557C250.348 271.405 247.746 274.007 247.746 277.216V279.574C247.746 282.783 250.348 285.385 253.557 285.385H270.082C273.291 285.385 275.893 282.783 275.893 279.574V277.216C275.893 274.007 273.291 271.405 270.082 271.405Z" fill="white" stroke="#E6E6E6" stroke-width="0.521625" stroke-miterlimit="10"/>
<path d="M255.059 284.112C258.216 284.112 260.776 281.552 260.776 278.395C260.776 275.237 258.216 272.678 255.059 272.678C251.901 272.678 249.342 275.237 249.342 278.395C249.342 281.552 251.901 284.112 255.059 284.112Z" fill="#414772"/>
<path d="M367.422 285.374H383.947C387.156 285.374 389.758 282.773 389.758 279.563V277.206C389.758 273.996 387.156 271.395 383.947 271.395H367.422C364.213 271.395 361.611 273.996 361.611 277.206V279.563C361.611 282.773 364.213 285.374 367.422 285.374Z" fill="#F8F8F8"/>
<path d="M382.444 284.112C385.601 284.112 388.161 281.552 388.161 278.395C388.161 275.238 385.601 272.678 382.444 272.678C379.286 272.678 376.727 275.238 376.727 278.395C376.727 281.552 379.286 284.112 382.444 284.112Z" fill="#EEEEEE" stroke="#E6E6E6" stroke-width="0.521625" stroke-miterlimit="10"/>
<path d="M404.926 225.387C413.638 225.387 420.7 218.325 420.7 209.613C420.7 200.902 413.638 193.839 404.926 193.839C396.215 193.839 389.152 200.902 389.152 209.613C389.152 218.325 396.215 225.387 404.926 225.387Z" fill="#EEEEEE"/>
<path d="M291.774 225.387C300.486 225.387 307.548 218.325 307.548 209.613C307.548 200.902 300.486 193.839 291.774 193.839C283.063 193.839 276 200.902 276 209.613C276 218.325 283.063 225.387 291.774 225.387Z" fill="#EEEEEE"/>
<path d="M446.582 231.271H363.279C362.357 231.271 361.609 232.019 361.609 232.94V237.051C361.609 237.973 362.357 238.72 363.279 238.72H446.582C447.504 238.72 448.251 237.973 448.251 237.051V232.94C448.251 232.019 447.504 231.271 446.582 231.271Z" fill="#F8F8F8"/>
<path d="M443.89 282.119C445.947 282.119 447.615 280.452 447.615 278.395C447.615 276.338 445.947 274.67 443.89 274.67C441.833 274.67 440.166 276.338 440.166 278.395C440.166 280.452 441.833 282.119 443.89 282.119Z" fill="#EEEEEE"/>
<path d="M434.386 274.67H399.74C398.818 274.67 398.07 275.418 398.07 276.34V280.45C398.07 281.372 398.818 282.119 399.74 282.119H434.386C435.308 282.119 436.055 281.372 436.055 280.45V276.34C436.055 275.418 435.308 274.67 434.386 274.67Z" fill="#F8F8F8"/>
<path d="M193.602 317.12H139.437C138.515 317.12 137.768 317.868 137.768 318.79V325.654C137.768 326.576 138.515 327.323 139.437 327.323H193.602C194.524 327.323 195.272 326.576 195.272 325.654V318.79C195.272 317.868 194.524 317.12 193.602 317.12Z" fill="#F8F8F8"/>
<path d="M277.929 317.12H223.763C222.841 317.12 222.094 317.868 222.094 318.79V325.654C222.094 326.576 222.841 327.323 223.763 327.323H277.929C278.85 327.323 279.598 326.576 279.598 325.654V318.79C279.598 317.868 278.85 317.12 277.929 317.12Z" fill="#F8F8F8"/>
<path d="M362.255 317.12H308.089C307.167 317.12 306.42 317.868 306.42 318.79V325.654C306.42 326.576 307.167 327.323 308.089 327.323H362.255C363.177 327.323 363.924 326.576 363.924 325.654V318.79C363.924 317.868 363.177 317.12 362.255 317.12Z" fill="#F8F8F8"/>
<path d="M446.581 317.12H392.415C391.493 317.12 390.746 317.868 390.746 318.79V325.654C390.746 326.576 391.493 327.323 392.415 327.323H446.581C447.503 327.323 448.25 326.576 448.25 325.654V318.79C448.25 317.868 447.503 317.12 446.581 317.12Z" fill="#F8F8F8"/>
<path d="M130.861 45.0301C133.005 45.0301 134.742 43.2926 134.742 41.1492C134.742 39.0058 133.005 37.2683 130.861 37.2683C128.718 37.2683 126.98 39.0058 126.98 41.1492C126.98 43.2926 128.718 45.0301 130.861 45.0301Z" fill="#E85254"/>
<path d="M142.18 45.0301C144.323 45.0301 146.061 43.2926 146.061 41.1492C146.061 39.0058 144.323 37.2683 142.18 37.2683C140.036 37.2683 138.299 39.0058 138.299 41.1492C138.299 43.2926 140.036 45.0301 142.18 45.0301Z" fill="#FD9C06"/>
<path d="M153.5 45.0301C155.643 45.0301 157.381 43.2926 157.381 41.1492C157.381 39.0058 155.643 37.2683 153.5 37.2683C151.357 37.2683 149.619 39.0058 149.619 41.1492C149.619 43.2926 151.357 45.0301 153.5 45.0301Z" fill="#29C56D"/>
<path d="M536.393 108.992C546.914 108.992 555.443 100.463 555.443 89.9421C555.443 79.4212 546.914 70.8923 536.393 70.8923C525.873 70.8923 517.344 79.4212 517.344 89.9421C517.344 100.463 525.873 108.992 536.393 108.992Z" fill="#EEEEEE"/>
<path d="M540.473 82.9419H532.315C530.708 82.9419 529.404 84.246 529.404 85.8526V94.0108C529.404 95.6174 530.708 96.9214 532.315 96.9214H540.473C542.08 96.9214 543.384 95.6174 543.384 94.0108V85.8526C543.384 84.246 542.08 82.9419 540.473 82.9419ZM532.315 84.1103H540.473C541.443 84.1103 542.226 84.8928 542.226 85.863V94.0212C542.226 94.282 542.163 94.5324 542.048 94.7723L536.707 89.4309C535.57 88.2938 533.723 88.2938 532.586 89.4309L530.562 91.4548V85.863C530.562 84.8928 531.345 84.1103 532.315 84.1103ZM532.315 95.7739C531.345 95.7739 530.562 94.9914 530.562 94.0212V93.0927L533.41 90.2446C534.088 89.5665 535.205 89.5561 535.883 90.2446L541.224 95.5861C540.995 95.7008 540.734 95.7634 540.473 95.7634H532.315V95.7739Z" fill="#D5D5D5"/>
<path d="M538.721 89.0656C539.847 89.0656 540.765 88.1476 540.765 87.0208C540.765 85.8941 539.847 84.9761 538.721 84.9761C537.594 84.9761 536.676 85.8941 536.676 87.0208C536.676 88.1476 537.594 89.0656 538.721 89.0656ZM538.721 86.155C539.2 86.155 539.597 86.5514 539.597 87.0313C539.597 87.5112 539.2 87.9076 538.721 87.9076C538.241 87.9076 537.844 87.5112 537.844 87.0313C537.844 86.5514 538.241 86.155 538.721 86.155Z" fill="#D5D5D5"/>
</g>
<g clip-path="url(#clip1_42_3)">
<g filter="url(#filter1_d_42_3)">
<path d="M96.7949 20.5762H50.3494C47.3475 20.5762 44.9141 23.0097 44.9141 26.0115V248.328C44.9141 251.33 47.3475 253.763 50.3494 253.763H96.7949C99.7968 253.763 102.23 251.33 102.23 248.328V26.0115C102.23 23.0097 99.7968 20.5762 96.7949 20.5762Z" fill="white"/>
</g>
<mask id="mask0_42_3" style="mask-type:luminance" maskUnits="userSpaceOnUse" x="55" y="37" width="37" height="25">
<path d="M87.5324 37.2681H59.6359C57.3312 37.2681 55.4629 39.1364 55.4629 41.4411V57.2567C55.4629 59.5614 57.3312 61.4297 59.6359 61.4297H87.5324C89.8371 61.4297 91.7054 59.5614 91.7054 57.2567V41.4411C91.7054 39.1364 89.8371 37.2681 87.5324 37.2681Z" fill="white"/>
</mask>
<g mask="url(#mask0_42_3)">
<path d="M91.7054 37.2681H55.4629V61.4297H91.7054V37.2681Z" fill="#F0F0F0"/>
<path d="M75.848 37.2681H71.3099V47.085H55.4629V51.6232H71.3099V61.4297H75.848V51.6232H91.695V47.085H75.848V37.2681Z" fill="#D80027"/>
<path d="M83.3301 53.5535L91.6969 58.2064V53.5535H83.3301Z" fill="#0052B4"/>
<path d="M77.5195 53.5535L91.6973 61.43V59.2079L81.536 53.5535H77.5195Z" fill="#0052B4"/>
<path d="M87.9207 61.43L77.5195 55.6504V61.43H87.9207Z" fill="#0052B4"/>
<path d="M77.5176 53.5535L91.6953 61.43V59.2079L81.5341 53.5535H77.5176Z" fill="#F0F0F0"/>
<path d="M77.5176 53.5535L91.6953 61.43V59.2079L81.5341 53.5535H77.5176Z" fill="#D80027"/>
<path d="M61.858 53.5535L55.4629 57.1109V53.5535H61.858Z" fill="#0052B4"/>
<path d="M69.6405 54.5548V61.4298H57.2676L69.6405 54.5548Z" fill="#0052B4"/>
<path d="M65.6346 53.5535L55.4629 59.2079V61.43L69.6407 53.5535H65.6346Z" fill="#D80027"/>
<path d="M63.8298 45.1552L55.4629 40.5023V45.1552H63.8298Z" fill="#0052B4"/>
<path d="M69.6407 45.1553L55.4629 37.2683V39.5009L65.6346 45.1553H69.6407Z" fill="#0052B4"/>
<path d="M59.2383 37.2683L69.6395 43.0583V37.2683H59.2383Z" fill="#0052B4"/>
<path d="M69.6407 45.155L55.4629 37.2681V39.5006L65.6346 45.155H69.6407Z" fill="#F0F0F0"/>
<path d="M69.6407 45.155L55.4629 37.2681V39.5006L65.6346 45.155H69.6407Z" fill="#D80027"/>
<path d="M85.3027 45.1549L91.6979 41.5974V45.1549H85.3027Z" fill="#0052B4"/>
<path d="M77.5195 44.1535V37.2681H89.9029L77.5195 44.1535Z" fill="#0052B4"/>
<path d="M81.5341 45.155L91.6953 39.5006V37.2681L77.5176 45.155H81.5341Z" fill="#D80027"/>
</g>
<mask id="mask1_42_3" style="mask-type:luminance" maskUnits="userSpaceOnUse" x="55" y="130" width="37" height="25">
<path d="M87.5324 130.597H59.6359C57.3312 130.597 55.4629 132.466 55.4629 134.77V150.586C55.4629 152.891 57.3312 154.759 59.6359 154.759H87.5324C89.8371 154.759 91.7054 152.891 91.7054 150.586V134.77C91.7054 132.466 89.8371 130.597 87.5324 130.597Z" fill="white"/>
</mask>
<g mask="url(#mask1_42_3)">
<path d="M92.2155 130.191H54.9297V155.051H92.2155V130.191Z" fill="#D80027"/>
<path d="M72.9354 139.768L74.2186 141.531L76.2947 140.853L75.0115 142.616L76.2947 144.389L74.2186 143.711L72.9354 145.474V143.294L70.8594 142.616L72.9354 141.948V139.768Z" fill="#F0F0F0"/>
<path d="M69.4405 147.029C66.9993 147.029 65.0276 145.057 65.0276 142.616C65.0276 140.175 66.9993 138.203 69.4405 138.203C70.2021 138.203 70.9115 138.391 71.5375 138.735C70.5568 137.775 69.2214 137.191 67.74 137.191C64.7355 137.191 62.3047 139.622 62.3047 142.626C62.3047 145.631 64.7355 148.062 67.74 148.062C69.2214 148.062 70.5568 147.467 71.5375 146.518C70.9115 146.851 70.2021 147.05 69.4405 147.05V147.029Z" fill="#F0F0F0"/>
</g>
<mask id="mask2_42_3" style="mask-type:luminance" maskUnits="userSpaceOnUse" x="55" y="171" width="37" height="25">
<path d="M87.5324 171.044H59.6359C57.3312 171.044 55.4629 172.913 55.4629 175.217V191.033C55.4629 193.338 57.3312 195.206 59.6359 195.206H87.5324C89.8371 195.206 91.7054 193.338 91.7054 191.033V175.217C91.7054 172.913 89.8371 171.044 87.5324 171.044Z" fill="white"/>
</mask>
<g mask="url(#mask2_42_3)">
<path d="M55.43 195.394H91.5682C91.9229 195.394 92.215 195.102 92.215 194.747V171.514C92.215 171.159 91.9229 170.867 91.5682 170.867H55.43C55.0753 170.867 54.7832 171.159 54.7832 171.514V194.747C54.7832 195.102 55.0753 195.394 55.43 195.394Z" fill="#D8394C"/>
<path d="M92.215 176.031H54.7832V190.23H92.215V176.031Z" fill="#FFD250"/>
<path d="M70.5992 183.125L71.1417 180.663C71.1939 180.434 71.0165 180.225 70.787 180.225H70.401C70.1715 180.225 69.9941 180.444 70.0463 180.663L70.5888 183.125H70.5992Z" fill="#D8394C"/>
<path d="M71.2448 181.842H69.9512V187.33H71.2448V181.842Z" fill="#F5F5F5"/>
<path d="M71.5694 181.195H69.6289V181.842H71.5694V181.195Z" fill="#FAB446"/>
<path d="M71.5693 183.125H68.3457V183.772H71.5693V183.125Z" fill="#D8394C"/>
<path d="M71.5694 185.712L69.6289 185.066V184.419L71.5694 185.066V185.712Z" fill="#D8394C"/>
<path d="M60.9176 183.125L61.4601 180.663C61.5122 180.434 61.3349 180.225 61.1053 180.225H60.7193C60.4898 180.225 60.3125 180.444 60.3646 180.663L60.9071 183.125H60.9176Z" fill="#D8394C"/>
<path d="M63.18 181.195C62.8253 181.195 62.5332 181.487 62.5332 181.842V186.036C62.5332 186.818 63.2635 188.3 65.7568 188.3C68.2502 188.3 68.9805 186.829 68.9805 186.036V181.842C68.9805 181.487 68.6884 181.195 68.3337 181.195H63.1696H63.18Z" fill="#F5F5F5"/>
<path d="M65.7588 184.419H62.5352V181.842C62.5352 181.487 62.8273 181.195 63.182 181.195H65.7588V184.419Z" fill="#D8394C"/>
<path d="M65.7585 184.419H68.9821V186.036C68.9821 186.922 68.2623 187.653 67.3651 187.653C66.4783 187.653 65.748 186.933 65.748 186.036V184.419H65.7585Z" fill="#D8394C"/>
<path d="M62.5339 184.419H65.7575V186.036C65.7575 186.922 65.0377 187.653 64.1405 187.653C63.2537 187.653 62.5234 186.933 62.5234 186.036V184.419H62.5339Z" fill="#FAB446"/>
<path d="M65.1117 187.319V184.419H64.4648V187.611C64.7048 187.559 64.9239 187.455 65.1117 187.308V187.319Z" fill="#D8394C"/>
<path d="M63.8285 187.611V184.419H63.1816V187.319C63.3694 187.465 63.5885 187.569 63.8285 187.621V187.611Z" fill="#D8394C"/>
<path d="M65.1221 183.125H63.1816V183.772H65.1221V183.125Z" fill="#FFB441"/>
<path d="M65.1221 181.842H63.1816V182.489H65.1221V181.842Z" fill="#FAB446"/>
<path d="M64.7995 182.218H63.5059V183.386H64.7995V182.218Z" fill="#FAB446"/>
<path d="M61.5632 181.842H60.2695V187.33H61.5632V181.842Z" fill="#F5F5F5"/>
<path d="M61.8858 187.006H59.9453V187.653H61.8858V187.006Z" fill="#FAB446"/>
<path d="M61.8858 181.195H59.9453V181.842H61.8858V181.195Z" fill="#FAB446"/>
<path d="M62.2018 187.643H59.625V188.289H62.2018V187.643Z" fill="#5064AA"/>
<path d="M71.8916 187.006H69.9512V187.653H71.8916V187.006Z" fill="#FAB446"/>
<path d="M71.8815 187.643H69.3047V188.289H71.8815V187.643Z" fill="#5064AA"/>
<path d="M67.6986 180.548H63.8281V181.195H67.6986V180.548Z" fill="#FAB446"/>
<path d="M66.0824 178.608H65.4355V180.548H66.0824V178.608Z" fill="#FFB441"/>
<path d="M65.1128 179.578C64.5807 179.578 64.1426 179.14 64.1426 178.608C64.1426 178.076 64.5807 177.637 65.1128 177.637C65.6449 177.637 66.083 178.076 66.083 178.608C66.083 179.14 65.6449 179.578 65.1128 179.578ZM65.1128 178.284C64.9354 178.284 64.7894 178.43 64.7894 178.608C64.7894 178.785 64.9354 178.931 65.1128 178.931C65.2902 178.931 65.4362 178.785 65.4362 178.608C65.4362 178.43 65.2902 178.284 65.1128 178.284Z" fill="#F5F5F5"/>
<path d="M66.4077 179.578C65.8757 179.578 65.4375 179.14 65.4375 178.608C65.4375 178.076 65.8757 177.637 66.4077 177.637C66.9398 177.637 67.3779 178.076 67.3779 178.608C67.3779 179.14 66.9398 179.578 66.4077 179.578ZM66.4077 178.284C66.2304 178.284 66.0843 178.43 66.0843 178.608C66.0843 178.785 66.2304 178.931 66.4077 178.931C66.5851 178.931 66.7311 178.785 66.7311 178.608C66.7311 178.43 66.5851 178.284 66.4077 178.284Z" fill="#F5F5F5"/>
<path d="M67.7007 180.225C67.1686 180.225 66.7305 179.786 66.7305 179.254C66.7305 178.722 67.1686 178.284 67.7007 178.284C68.2327 178.284 68.6709 178.722 68.6709 179.254C68.6709 179.786 68.2327 180.225 67.7007 180.225ZM67.7007 178.931C67.5233 178.931 67.3773 179.077 67.3773 179.254C67.3773 179.432 67.5233 179.578 67.7007 179.578C67.878 179.578 68.0241 179.432 68.0241 179.254C68.0241 179.077 67.878 178.931 67.7007 178.931Z" fill="#F5F5F5"/>
<path d="M63.8296 180.225C63.2975 180.225 62.8594 179.786 62.8594 179.254C62.8594 178.722 63.2975 178.284 63.8296 178.284C64.3617 178.284 64.7998 178.722 64.7998 179.254C64.7998 179.786 64.3617 180.225 63.8296 180.225ZM63.8296 178.931C63.6522 178.931 63.5062 179.077 63.5062 179.254C63.5062 179.432 63.6522 179.578 63.8296 179.578C64.0069 179.578 64.153 179.432 64.153 179.254C64.153 179.077 64.0069 178.931 63.8296 178.931Z" fill="#F5F5F5"/>
<path d="M67.7 185.712V186.036C67.7 186.213 67.5539 186.359 67.3766 186.359C67.1992 186.359 67.0532 186.213 67.0532 186.036V185.712H67.7ZM68.3468 185.066H66.4062V186.036C66.4062 186.568 66.8445 187.006 67.3766 187.006C67.9086 187.006 68.3468 186.568 68.3468 186.036V185.066Z" fill="#FAB446"/>
<path d="M67.3734 183.772C67.0187 183.772 66.7266 183.48 66.7266 183.125V182.478C66.7266 182.124 67.0187 181.832 67.3734 181.832C67.7281 181.832 68.0202 182.124 68.0202 182.478V183.125C68.0202 183.48 67.7281 183.772 67.3734 183.772Z" fill="#FFA0D2"/>
<path d="M65.7573 185.389C66.2932 185.389 66.7276 184.955 66.7276 184.419C66.7276 183.883 66.2932 183.448 65.7573 183.448C65.2215 183.448 64.7871 183.883 64.7871 184.419C64.7871 184.955 65.2215 185.389 65.7573 185.389Z" fill="#5064AA"/>
<path d="M66.0824 177.325H65.4355V179.265H66.0824V177.325Z" fill="#FAB446"/>
<path d="M63.8285 180.548L63.1816 179.901L63.5572 179.526C64.1414 178.942 64.9343 178.618 65.7585 178.618C66.5826 178.618 67.3755 178.942 67.9597 179.526L68.3353 179.901L67.6885 180.548H63.818H63.8285Z" fill="#D8394C"/>
<path d="M65.757 180.225C65.9356 180.225 66.0804 180.08 66.0804 179.902C66.0804 179.723 65.9356 179.578 65.757 179.578C65.5784 179.578 65.4336 179.723 65.4336 179.902C65.4336 180.08 65.5784 180.225 65.757 180.225Z" fill="#FFD250"/>
<path d="M64.464 180.225C64.6426 180.225 64.7874 180.08 64.7874 179.902C64.7874 179.723 64.6426 179.578 64.464 179.578C64.2854 179.578 64.1406 179.723 64.1406 179.902C64.1406 180.08 64.2854 180.225 64.464 180.225Z" fill="#FFD250"/>
<path d="M67.0519 180.225C67.2305 180.225 67.3753 180.08 67.3753 179.902C67.3753 179.723 67.2305 179.578 67.0519 179.578C66.8733 179.578 66.7285 179.723 66.7285 179.902C66.7285 180.08 66.8733 180.225 67.0519 180.225Z" fill="#FFD250"/>
<path d="M63.169 183.125H59.9453V183.772H63.169V183.125Z" fill="#D8394C"/>
<path d="M59.9453 185.712L61.8858 185.066V184.419L59.9453 185.066V185.712Z" fill="#D8394C"/>
</g>
<mask id="mask3_42_3" style="mask-type:luminance" maskUnits="userSpaceOnUse" x="55" y="211" width="37" height="25">
<path d="M87.5324 211.501H59.6359C57.3312 211.501 55.4629 213.37 55.4629 215.674V231.49C55.4629 233.795 57.3312 235.663 59.6359 235.663H87.5324C89.8371 235.663 91.7054 233.795 91.7054 231.49V215.674C91.7054 213.37 89.8371 211.501 87.5324 211.501Z" fill="white"/>
</mask>
<g mask="url(#mask3_42_3)">
<path d="M67.4489 237.301H55.2012V209.738H67.4489L68.2105 222.758L67.4489 237.311V237.301Z" fill="#0053B5"/>
<path d="M91.9546 237.301H79.7069L78.9453 223.52L79.7069 209.738H91.9546V237.301Z" fill="#D80027"/>
<path d="M67.4492 209.738H79.697V237.301H67.4492V209.738Z" fill="white"/>
</g>
<g filter="url(#filter2_d_42_3)">
<path d="M113.107 75.0024H34.346C29.7366 75.0024 26 78.7391 26 83.3484V107.51C26 112.12 29.7366 115.856 34.346 115.856H113.107C117.717 115.856 121.453 112.12 121.453 107.51V83.3484C121.453 78.7391 117.717 75.0024 113.107 75.0024Z" fill="white"/>
<path d="M38.5969 91.7118C38.2586 91.7118 37.9767 91.4299 37.9767 91.0916C37.9767 90.7532 38.2586 90.4713 38.5969 90.4713C38.9353 90.4713 39.2059 90.7532 39.2059 91.0916C39.2059 91.4299 38.9465 91.7118 38.5969 91.7118ZM40.142 91.7118C39.7811 91.7118 39.5217 91.4412 39.5217 91.0916C39.5217 90.7532 39.7811 90.4713 40.142 90.4713C40.4803 90.4713 40.7509 90.7532 40.7509 91.0916C40.7509 91.4299 40.4803 91.7118 40.142 91.7118ZM42.7358 97.3957L42.9275 97.4295L42.8598 98.8843L42.6681 98.9294C41.3599 98.9294 40.6945 98.2753 40.5254 97.1927C40.2886 97.7904 39.7811 98.2302 38.8338 98.2302C37.5707 98.2302 36.7249 97.4183 36.7249 96.1664C36.7249 94.8019 37.6947 93.7079 40.3901 93.1779V92.3772H41.5516V96.2905C41.5516 97.2491 42.014 97.3957 42.7358 97.3957ZM38.9804 96.6852C39.7021 96.6852 40.1758 96.4822 40.3901 96.2454V94.5312C38.3939 94.8921 37.7511 95.4334 37.7511 95.9635C37.7511 96.4597 38.315 96.6852 38.9804 96.6852ZM46.419 97.3957L46.6107 97.4295L46.543 98.8956L46.3513 98.9294C45.3814 98.9294 44.7048 98.5686 44.4341 97.813C44.1973 98.4896 43.6108 98.9294 42.6635 98.9294L42.4718 98.8956L42.5395 97.4295L42.7312 97.3957C43.5657 97.3957 43.9943 97.2378 43.9943 96.2679V94.644H45.1672V96.2228C45.1672 97.2265 45.5168 97.3957 46.419 97.3957ZM43.8138 99.7076C44.1522 99.7076 44.4228 99.9895 44.4228 100.328C44.4228 100.666 44.1634 100.937 43.8138 100.937C43.4755 100.937 43.1936 100.666 43.1936 100.328C43.1936 99.9895 43.4755 99.7076 43.8138 99.7076ZM45.3589 99.7076C45.6972 99.7076 45.9679 99.9895 45.9679 100.328C45.9679 100.666 45.6972 100.937 45.3589 100.937C44.998 100.937 44.7386 100.677 44.7386 100.328C44.7386 99.9895 44.998 99.7076 45.3589 99.7076ZM46.353 98.9294L46.1612 98.8618L46.2289 97.4634L46.4206 97.3957C47.2552 97.3957 47.6499 97.0912 47.6499 96.4371C47.6499 95.8845 47.4807 95.0387 47.3228 94.3395L48.4393 94.0237C48.631 94.6891 48.8115 95.5575 48.8115 96.3356C48.8115 97.9821 47.9093 98.9294 46.353 98.9294ZM47.5935 101.072C47.1762 101.072 46.8943 100.756 46.8943 100.384C46.8943 100.012 47.1762 99.6963 47.5935 99.6963C47.9995 99.6963 48.2814 100.012 48.2814 100.384C48.2814 100.756 47.9995 101.072 47.5935 101.072ZM52.8464 97.3957H53.7599L53.9516 97.4521L53.884 98.8731L53.6923 98.9294H52.7562C52.4179 100.384 51.324 101.422 49.7451 101.422C49.2489 101.422 48.8316 101.332 48.6512 101.275L48.7527 99.8542C49.0234 99.888 49.2715 99.8993 49.5309 99.8993C51.0533 99.8993 51.7074 98.952 51.7074 98.0724C51.7074 97.2942 51.4706 96.3018 51.2563 95.1402L52.4179 94.8131C52.6096 95.7041 52.7901 96.6063 52.8464 97.3957ZM59.6874 97.3957H59.9694L60.1611 97.4295L60.0934 98.8956L59.9017 98.9294H59.5859C58.086 98.9294 57.3981 98.8618 56.7553 98.343C56.0448 98.7264 55.1764 98.9294 53.6878 98.9294L53.4961 98.8956L53.5637 97.4295L53.7554 97.3957C54.5674 97.3957 55.1538 97.3731 55.6162 97.3393C55.0975 96.8544 54.5336 96.2679 54.2742 95.9409V94.565C54.4772 94.3959 55.5486 93.6854 57.0598 93.6854C58.5033 93.6854 59.3491 94.3733 59.3491 95.4672C59.3491 96.2228 58.8867 96.7867 58.0635 97.3731C58.4469 97.3957 58.9769 97.3957 59.6874 97.3957ZM58.3228 95.7492C58.3228 95.3883 57.7364 95.1402 56.947 95.1402C56.2816 95.1402 55.6388 95.3206 55.2666 95.5123C55.7628 95.9973 56.4846 96.719 56.8568 97.0348C57.7928 96.5499 58.3228 96.1326 58.3228 95.7492ZM61.151 90.8547H62.369V96.2905C62.369 98.1626 61.2976 98.9294 59.8992 98.9294L59.7075 98.8956L59.7752 97.4295L59.9669 97.3957C60.7225 97.3957 61.151 97.2265 61.151 96.3694V90.8547ZM65.1464 98.9294H63.9284V90.8547H65.1464V98.9294Z" fill="#004956"/>
<mask id="mask4_42_3" style="mask-type:luminance" maskUnits="userSpaceOnUse" x="74" y="83" width="38" height="25">
<path d="M106.847 83.3486H78.9503C76.6457 83.3486 74.7773 85.2169 74.7773 87.5216V103.337C74.7773 105.642 76.6457 107.51 78.9503 107.51H106.847C109.152 107.51 111.02 105.642 111.02 103.337V87.5216C111.02 85.2169 109.152 83.3486 106.847 83.3486Z" fill="white"/>
</mask>
<g mask="url(#mask4_42_3)">
<path d="M111.54 83.0046H74.2539V107.865H111.54V83.0046Z" fill="#006C35"/>
<path d="M89.9029 88.6069C89.9029 88.6069 89.8299 88.6278 89.7986 88.6487C89.6838 88.7217 89.4752 88.9512 89.4647 89.212C89.4647 89.3581 89.4334 89.3581 89.5273 89.452C89.6004 89.5563 89.663 89.5458 89.809 89.4728C89.882 89.4311 89.9342 89.3581 89.9446 89.2746C89.9759 89.1077 89.7673 89.3581 89.7464 89.1703C89.7047 88.9929 89.8299 88.9303 89.9655 88.753C89.9655 88.6695 89.9655 88.6069 89.9238 88.6069H89.9029ZM91.9581 88.6174C91.9581 88.6174 91.8746 88.6695 91.8016 88.7947C91.7495 88.9199 91.5512 89.1077 91.6973 89.5146C91.8225 89.7649 91.8746 90.1718 91.812 90.6308C91.7495 90.7352 91.6764 90.8395 91.593 90.9334C91.4365 91.1003 91.2696 91.0586 91.1444 90.996C91.0192 90.9125 90.9253 90.8708 90.8731 90.6204C90.8731 90.2031 90.9044 89.5354 90.8314 89.3894C90.7166 89.1703 90.5393 89.2433 90.4558 89.3163C90.0803 89.6606 89.8925 90.2448 89.7777 90.7039C89.6734 91.0377 89.5586 90.9438 89.4856 90.8082C89.2978 90.6308 89.2769 89.2329 89.0474 89.4624C88.6823 90.5161 89.2561 91.6636 89.663 91.5489C89.9551 91.6636 90.1324 91.1212 90.2576 90.5161C90.3411 90.3491 90.4037 90.3283 90.4454 90.4118C90.435 91.2151 90.508 91.3924 90.7062 91.6324C91.1652 91.9871 91.5408 91.6741 91.5721 91.6428L91.9268 91.2881C92.0103 91.2046 92.1146 91.1942 92.2294 91.2777C92.3441 91.382 92.3232 91.5489 92.5632 91.6636C92.7614 91.7471 93.1787 91.6845 93.283 91.5176C93.4187 91.2881 93.45 91.2151 93.5021 91.1316C93.596 91.0064 93.7525 91.0586 93.7525 91.1003C93.7421 91.1733 93.6482 91.2359 93.7108 91.3611C93.8255 91.4446 93.8464 91.3924 93.909 91.3715C94.1385 91.2568 94.3158 90.756 94.3158 90.756C94.3158 90.5682 94.222 90.5787 94.1489 90.6204C94.055 90.6726 94.055 90.6934 93.9611 90.7456C93.8464 90.7664 93.6273 90.8395 93.523 90.6726C93.4082 90.4743 93.4082 90.1822 93.3248 89.984C93.3248 89.9736 93.1787 89.6606 93.3143 89.6397C93.3874 89.6502 93.5334 89.6919 93.5543 89.5667C93.6273 89.4415 93.3978 89.0972 93.2413 88.9199C93.1057 88.7738 92.9179 88.753 92.7301 88.9095C92.6049 89.0242 92.6258 89.1598 92.5945 89.285C92.5528 89.4624 92.5945 89.6502 92.7092 89.7962C92.8344 90.0466 93.064 90.37 92.9909 90.829C92.9909 90.829 92.8553 91.0481 92.6154 91.0168C92.5215 90.996 92.3545 90.9542 92.2711 90.3179C92.2085 89.838 92.2919 89.1703 92.0833 88.8573C92.0416 88.7425 91.9998 88.6278 91.9372 88.6382L91.9581 88.6174ZM91.3113 88.6695C91.2487 88.6695 91.1861 88.7425 91.1235 88.8886C91.0713 88.9929 91.0192 89.5459 91.0296 89.5459C90.9879 89.7128 91.1965 89.7754 91.2904 89.5667C91.3843 89.3372 91.4365 89.0973 91.4469 88.8573C91.426 88.7321 91.3739 88.6695 91.3113 88.68V88.6695ZM93.7108 88.7112C93.6482 88.7112 93.596 88.753 93.5751 88.8469C93.5543 89.0242 93.5543 89.1911 93.596 89.3685C93.6273 89.4937 93.8047 89.6919 93.8881 89.8067C94.3054 90.37 94.7019 90.9229 95.0879 91.5072C95.1505 91.9349 95.1922 92.3626 95.2235 92.7799C95.2861 93.7919 95.2965 94.8038 95.2443 95.8158C95.4217 95.8158 95.6929 95.5341 95.7868 95.1168C95.8494 94.543 95.766 93.3537 95.7555 93.0199C95.7555 92.8738 95.7451 92.7069 95.7347 92.5295C96.1833 93.2598 96.6214 94.0423 97.0492 94.8977C97.2057 94.8247 97.1744 93.9484 97.0805 93.8232C96.7362 93.0825 96.2667 92.3626 96.1102 92.0809C96.0581 91.9766 95.8703 91.7054 95.6512 91.3715C95.6095 90.9125 95.5678 90.5161 95.5365 90.4013C95.4634 89.911 95.7347 90.4535 95.7034 90.1718C95.6199 89.6815 95.3487 89.3476 95.0253 88.899C94.9209 88.753 94.9209 88.7217 94.7644 88.9303C94.681 89.1077 94.6601 89.3059 94.7019 89.4937C94.6601 89.4311 94.608 89.3581 94.5349 89.2746C94.2637 89.0347 94.2428 89.0242 94.0133 88.8364C93.9403 88.7843 93.8047 88.7008 93.7003 88.7112H93.7108ZM100.815 88.7843C100.815 88.7843 100.753 88.7947 100.711 88.8469C100.617 88.9303 100.565 89.0451 100.565 89.1703C100.586 89.4311 100.628 89.6919 100.648 89.9527C100.648 89.984 100.659 90.0258 100.669 90.0571C100.648 90.0258 100.628 90.0049 100.607 89.984C100.106 89.452 100.836 89.9006 100.513 89.4937C100.231 89.1911 100.158 89.0973 99.9181 88.9095C99.8033 88.8364 99.7303 88.6904 99.6886 88.9303C99.6677 89.1494 99.6677 89.3685 99.6677 89.5876C99.6677 89.6919 99.772 89.8797 99.8659 89.9944C100.2 90.4117 100.544 90.8499 100.888 91.3089C100.961 92.2479 100.982 93.1033 101.055 94.0423C101.055 94.4387 100.92 94.9708 100.805 95.0229C100.805 95.0229 100.628 95.1272 100.513 95.0125C100.429 94.9812 100.075 94.4387 100.075 94.4387C99.8972 94.2718 99.7825 94.3239 99.6573 94.4387C99.313 94.7725 99.1461 95.4089 98.9166 95.8367C98.854 95.9305 98.6871 96.014 98.4888 95.8367C98.009 95.1794 98.2906 94.23 98.228 94.47C97.8003 94.9603 97.9881 95.7636 98.082 95.941C98.228 96.2227 98.3428 96.4104 98.614 96.5461C98.8644 96.7339 99.0626 96.6191 99.167 96.4835C99.4173 96.2226 99.4278 95.5445 99.5425 95.4089C99.626 95.169 99.8346 95.2107 99.939 95.315C100.033 95.4506 100.158 95.555 100.304 95.628C100.544 95.8367 100.826 95.8784 101.097 95.6802C101.285 95.5758 101.41 95.4298 101.525 95.1585C101.639 94.8351 101.587 93.1659 101.556 92.227C101.733 92.4774 101.911 92.7382 102.088 92.999C102.172 93.7919 102.192 94.5952 102.172 95.3985C102.151 95.555 102.704 94.9395 102.704 94.6473V93.9484C102.975 94.3761 103.236 94.8143 103.476 95.2524C103.632 95.169 103.58 94.3031 103.476 94.1883C103.215 93.7606 102.891 93.2911 102.631 92.926C102.578 92.467 102.516 91.9349 102.484 91.768C102.432 91.5072 102.391 91.1212 102.318 90.8186C102.297 90.7039 102.234 90.3179 102.255 90.2866C102.286 90.2031 102.401 90.2866 102.453 90.1927C102.537 90.0988 102.161 89.1285 101.973 88.8573C101.9 88.7321 101.786 88.7739 101.629 88.9825C101.483 89.1181 101.535 89.4207 101.598 89.7023C101.733 90.4326 101.859 91.1838 101.963 91.9245C101.775 91.6532 101.556 91.3194 101.337 91.0064C101.337 90.9751 101.306 90.8603 101.306 90.8603C101.306 90.8499 101.274 90.2657 101.253 90.1196C101.253 90.0675 101.233 90.0466 101.295 90.0571C101.326 90.0883 101.368 90.1092 101.41 90.1301C101.473 90.1405 101.525 90.0362 101.493 89.9319L100.899 88.8364C100.899 88.8364 100.847 88.7947 100.815 88.7843ZM82.4645 88.8051C82.3602 88.8051 82.235 88.8677 82.2872 89.0034C82.2559 89.0764 82.4958 89.3163 82.5376 89.452C82.5793 89.5459 82.4958 89.8484 82.5793 89.8797C82.6627 89.911 82.7566 89.671 82.7879 89.4415C82.8088 89.3163 82.7879 88.899 82.5063 88.8156C82.4958 88.8156 82.475 88.8156 82.4645 88.8156V88.8051ZM103.371 88.8051C103.371 88.8051 103.319 88.8469 103.267 88.9512C103.152 89.139 103.121 89.4624 103.163 89.7545C103.434 91.5698 103.632 93.3328 103.674 94.9499C103.663 95.0959 103.622 95.242 103.569 95.3776C103.413 95.5863 103.236 95.8366 103.069 95.9618C102.902 96.087 102.558 96.2018 102.432 96.2957C102.067 96.5043 102.067 96.7443 102.359 96.7547C102.87 96.6921 103.465 96.6504 103.882 96.0349C103.997 95.8575 104.122 95.3881 104.133 95.096C104.175 93.3955 104.112 91.7262 103.851 90.4952C103.83 90.3805 103.778 90.0988 103.799 90.0675C103.83 89.984 103.997 90.0675 104.06 89.984C104.143 89.9006 103.632 89.2329 103.455 88.9512C103.423 88.8782 103.392 88.826 103.361 88.826L103.371 88.8051ZM98.0507 88.826C98.0507 88.826 97.9985 88.8573 97.9359 88.9408C97.7899 89.3998 97.7481 89.7858 97.8003 90.0675C98.1654 91.9662 98.541 93.698 98.4784 95.5028C98.6558 95.5028 98.854 95.1064 98.9374 94.7204C98.9792 94.1779 98.9061 93.8545 98.8957 93.5311C98.8853 93.2077 98.541 90.6413 98.468 90.4013C98.3845 89.9423 98.8018 90.3387 98.7601 90.0779C98.614 89.7441 98.2489 89.2642 98.1341 88.9721C98.0924 88.899 98.082 88.826 98.0507 88.826ZM85.0935 88.8677C85.0414 88.8782 84.9996 88.9199 84.9892 88.9721C84.9892 89.0138 85.0101 89.0764 84.9683 89.0973C84.9475 89.1181 84.864 89.0973 84.8744 88.9929C84.8744 88.9616 84.8536 88.9303 84.8327 88.899C84.8118 88.8886 84.8014 88.8886 84.7805 88.8886C84.7492 88.8886 84.7492 88.8886 84.7284 88.9303C84.7179 88.9616 84.7075 88.9929 84.7075 89.0242C84.7075 89.066 84.6866 89.0764 84.6554 89.0868C84.6241 89.0973 84.6345 89.0868 84.6032 89.0764C84.5823 89.0555 84.5719 89.0555 84.5719 89.0242C84.5719 88.9929 84.5719 88.9616 84.551 88.9303C84.5302 88.9095 84.5093 88.899 84.4884 88.899C84.3528 88.899 84.3424 89.0555 84.3528 89.1181C84.3528 89.1285 84.3424 89.3998 84.5197 89.4833C84.7701 89.598 85.2291 89.5458 85.2083 89.1494C85.2083 89.1181 85.2083 88.9929 85.1978 88.9616C85.177 88.9095 85.1352 88.8782 85.0831 88.8886L85.0935 88.8677ZM88.4215 88.8677C88.338 88.8677 88.265 88.899 88.192 88.9303C88.025 89.0868 87.9938 89.3372 88.1189 89.5041C88.2441 89.5667 88.3693 89.6919 88.2859 89.7545C87.9312 90.1301 87.0027 90.7665 86.9609 90.8812C86.9609 90.8812 87.5869 90.9229 87.6495 90.8812C87.8477 90.8082 88.7971 89.7232 88.7971 89.7232C88.7449 89.6815 88.7032 89.6502 88.651 89.6084C88.5988 89.5667 88.5988 89.5145 88.651 89.4728C88.8805 89.3372 88.8075 89.0347 88.6927 88.899C88.6093 88.8573 88.5049 88.8364 88.4111 88.8469H88.4215V88.8677ZM97.1118 88.8782C97.1118 88.8782 97.0596 88.9199 97.0074 89.0138C96.8927 89.2016 96.8197 89.5145 96.8301 89.8171C97.07 91.4967 97.1431 92.9573 97.2995 94.6369C97.31 94.8038 97.2891 95.0334 97.1848 95.1272C96.7884 95.5445 96.2146 96.0557 95.5886 96.2957C95.526 96.3687 95.7555 96.6921 96.0581 96.6921C96.5693 96.6295 97.0074 96.3478 97.4247 95.5967C97.5395 95.4194 97.7273 95.0438 97.7377 94.7621C97.7794 93.0616 97.6543 91.7367 97.3934 90.5056C97.3726 90.4013 97.383 90.3074 97.4039 90.2031C97.4352 90.1614 97.5499 90.2031 97.6021 90.1092C97.6855 90.0257 97.3726 89.285 97.1848 89.0034C97.1535 88.9303 97.1222 88.8782 97.0909 88.8782H97.1118ZM83.6434 88.9303C83.5704 88.9408 83.5078 89.0034 83.4765 89.0764C83.466 89.3372 83.4765 89.598 83.4973 89.8588C83.6225 90.297 83.6538 90.6726 83.7164 91.1212C83.7373 91.7158 83.3722 91.382 83.393 91.0794C83.4765 90.6934 83.4556 90.0883 83.3826 89.9423C83.32 89.7858 83.2574 89.7545 83.1113 89.7754C82.9966 89.7754 82.7045 90.0883 82.621 90.61C82.5793 90.7769 82.548 90.9542 82.5271 91.1212C82.4854 91.3924 82.308 91.5906 82.1828 91.0794C82.0785 90.7143 82.0055 89.8171 81.8281 90.0258C81.776 90.7247 81.7134 91.9662 82.308 92.0914C83.0279 92.1644 82.6314 90.8708 82.8923 90.6308C82.9444 90.5161 83.0383 90.5161 83.0383 90.6621V91.7575C83.0383 92.1122 83.2678 92.2166 83.4452 92.2896C83.633 92.2792 83.7582 92.2896 83.8312 92.467C83.8625 93.1033 83.8938 93.7293 83.9251 94.3657C83.9668 95.315 84.3632 94.4909 84.3841 93.3016C84.405 92.6026 84.2485 92.0079 84.3424 91.8723C84.3424 91.7367 84.5197 91.7367 84.6345 91.7993C84.8223 91.9349 84.9057 92.1018 85.2083 92.0288C85.6569 91.9036 85.9281 91.6845 85.9281 91.3507C85.9073 91.0273 85.8655 90.6934 85.7195 90.37C85.7403 90.3074 85.636 90.1509 85.6569 90.0988C85.7403 90.224 85.8551 90.2135 85.8864 90.0988C85.8134 89.8484 85.6882 89.6085 85.5004 89.5041C85.3439 89.3685 85.1144 89.3894 85.0309 89.6815C84.9892 90.0153 85.1561 90.4117 85.3961 90.7352C85.4482 90.8603 85.5212 91.069 85.49 91.2672C85.3648 91.3402 85.2291 91.3089 85.1248 91.1942C85.1248 91.1942 84.7701 90.9229 84.7701 90.8708C84.864 90.2657 84.791 90.1927 84.7388 90.0258C84.6971 89.7962 84.5928 89.7232 84.4989 89.5667C84.4154 89.4728 84.2902 89.4728 84.2276 89.5667C84.0711 89.838 84.1442 90.4222 84.2589 90.683C84.3424 90.9229 84.4676 91.0794 84.405 91.0794C84.3528 91.2151 84.2589 91.1838 84.1859 91.0273C84.0816 90.7039 84.0607 90.2135 84.0607 89.9944C84.0294 89.7232 83.9981 89.1494 83.8208 89.0034C83.7895 88.9512 83.7269 88.9199 83.6643 88.9199L83.6434 88.9303ZM86.1889 88.9303C86.1889 88.9303 86.1159 88.9512 86.0637 88.9616C85.9073 89.0138 85.7612 89.139 85.8134 89.3998C85.9907 90.5056 86.1159 91.3507 86.2933 92.4565C86.3246 92.5817 86.2098 92.7591 86.0742 92.7382C85.8342 92.5817 85.7821 92.2479 85.3752 92.2687C85.0831 92.2687 84.7492 92.5921 84.7075 92.9051C84.6554 93.1451 84.6449 93.4163 84.7075 93.625C84.9162 93.8753 85.1665 93.8441 85.3752 93.7919C85.5525 93.7189 85.6986 93.5415 85.7612 93.5832C85.8029 93.6458 85.7612 94.2301 84.9162 94.6682C84.405 94.8977 83.9981 94.9499 83.779 94.5326C83.6434 94.2718 83.779 93.2702 83.4556 93.4998C82.4645 96.0557 85.7821 96.4104 86.1472 93.6041C86.1681 93.5206 86.2411 93.4476 86.2933 93.4685C86.3141 93.4685 86.335 93.5102 86.3454 93.5624C86.2724 96.1079 83.779 96.2853 83.3513 95.4819C83.247 95.2942 83.2157 94.8769 83.2052 94.6265C83.1844 94.47 83.1531 94.3865 83.1009 94.3552C82.9966 94.2822 82.861 94.4804 82.8401 94.8247C82.7984 95.1064 82.8088 95.1794 82.8088 95.4402C82.9444 97.4537 86.1472 96.5878 86.6688 94.929C86.9296 94.0736 86.6688 93.4267 86.7523 93.3433H86.7627C87.0757 93.6876 87.5243 93.385 87.6286 93.2703C87.6703 93.2077 87.7642 93.1868 87.8268 93.2285C87.8268 93.2285 87.8373 93.239 87.8477 93.2494C88.0981 93.4267 88.5258 93.3433 88.6197 93.0303C88.6823 92.7173 88.7136 92.3939 88.724 92.0809C88.5571 92.1331 88.4319 92.1644 88.3798 92.227C88.3693 92.2374 88.3589 92.2583 88.3589 92.2687C88.3485 92.3626 88.3276 92.4461 88.3172 92.54C88.3172 92.54 88.3172 92.5504 88.3172 92.5608C88.3172 92.5713 88.2963 92.5817 88.2859 92.5921C88.2337 92.6234 88.1294 92.6026 88.1189 92.5191C88.0459 92.1644 87.7225 92.1227 87.5347 92.6652C87.4095 92.7695 87.1696 92.7904 87.1487 92.6339C87.18 92.2687 87.034 92.2166 86.7419 92.3939C86.648 91.6741 86.5541 90.9855 86.4602 90.2657C86.5854 90.2657 86.6897 90.3492 86.8044 90.2135C86.6793 89.838 86.4289 89.0764 86.2828 89.0034C86.2828 89.0034 86.2724 88.9929 86.262 88.9825V88.9721H86.2411C86.2411 88.9721 86.2098 88.9616 86.1994 88.9616L86.1889 88.9303ZM96.0894 88.9303C95.9642 88.9303 95.8181 89.0034 95.8807 89.1703C95.8494 89.2537 96.152 89.5459 96.2041 89.7128C96.2876 89.9632 96.1415 90.1927 96.225 90.2344C96.3085 90.2761 96.4232 89.984 96.4754 89.7023C96.5275 89.4833 96.3711 89.0347 96.152 88.9408C96.1311 88.9408 96.1207 88.9408 96.0998 88.9408L96.0894 88.9303ZM88.3798 89.212C88.4528 89.212 88.5154 89.2642 88.5362 89.3372C88.578 89.4207 88.5571 89.4937 88.4945 89.5041C88.4319 89.5146 88.3589 89.4624 88.3172 89.3894C88.2754 89.3163 88.2963 89.2329 88.3589 89.212H88.3693H88.3798ZM102.683 89.5876C102.578 89.5876 102.484 89.6606 102.484 89.7649C102.484 89.7858 102.485 89.8171 102.495 89.838C102.464 89.9319 102.745 90.2553 102.787 90.4222C102.829 90.5474 102.724 90.9438 102.808 90.9855C102.891 91.0273 102.996 90.7143 103.037 90.4118C103.058 90.2553 102.944 89.6815 102.735 89.5876C102.714 89.5876 102.704 89.5876 102.683 89.5876ZM94.7749 89.7754C94.7749 89.7754 94.7957 89.8693 94.8062 89.9214C94.827 90.0257 94.8479 90.1301 94.8688 90.2344C94.7749 90.1092 94.7019 90.0049 94.6706 89.9736C94.4619 89.7232 94.6706 89.8171 94.7749 89.7858V89.7754ZM96.5901 90.6726C96.538 90.683 96.4962 90.7247 96.4858 90.7769C96.4858 90.8186 96.5067 90.8812 96.4649 90.9021C96.4441 90.9229 96.3606 90.9021 96.3711 90.7977C96.3711 90.7665 96.3502 90.7247 96.3293 90.7039C96.3085 90.6934 96.298 90.6934 96.2772 90.6934C96.2459 90.6934 96.2459 90.7039 96.225 90.7352C96.2146 90.7665 96.2041 90.7977 96.2041 90.829C96.2041 90.8708 96.1833 90.8812 96.1624 90.8916C96.1415 90.9021 96.1311 90.8916 96.1102 90.8812C96.0894 90.8603 96.0789 90.8603 96.0789 90.829C96.0789 90.7977 96.0789 90.7665 96.0581 90.7352C96.0372 90.7143 96.0163 90.7039 95.9955 90.7039C95.8599 90.7039 95.8494 90.8603 95.8599 90.9125C95.8599 90.9229 95.839 91.2046 96.0268 91.2777C96.2772 91.3924 96.7362 91.3402 96.7258 90.9438C96.7258 90.9125 96.7258 90.7873 96.7153 90.756C96.7049 90.7039 96.6527 90.6726 96.6006 90.683L96.5901 90.6726ZM88.2754 90.756C88.2754 90.756 88.192 90.7665 88.1607 90.7873C87.9416 90.9021 87.8581 91.2568 87.9938 91.4654C88.1189 91.6428 88.3276 91.5802 88.3485 91.5802C88.5675 91.6115 88.6927 91.1733 88.6927 91.1733C88.6927 91.1733 88.6927 91.0481 88.4424 91.2777C88.338 91.2985 88.3172 91.2568 88.2963 91.1942C88.2754 91.0794 88.2859 90.9647 88.3276 90.8603C88.3485 90.7977 88.3276 90.7456 88.2754 90.7456V90.756ZM100.033 90.8082C99.8868 90.8082 99.772 90.9021 99.7512 91.0481C99.7512 91.142 99.7929 91.2046 99.7825 91.2881C99.7721 91.3402 99.7199 91.3715 99.5947 91.3089C99.6156 91.2881 99.5112 91.1525 99.5112 91.1525C99.4173 91.0899 99.2817 91.1525 99.1983 91.2151C99.1357 91.3298 99.1252 91.4654 99.167 91.5906C99.3026 91.8514 99.7825 92.2896 100.012 92.2896C100.012 92.0601 100.043 91.7471 100.054 91.5489C100.054 91.4759 100.075 91.3924 100.148 91.382C100.221 91.3715 100.335 91.455 100.335 91.382C100.325 91.2359 100.294 91.0168 100.21 90.9125C100.168 90.8499 100.095 90.8082 100.022 90.8082H100.033ZM90.2993 91.6219C90.268 91.6637 90.2263 91.6949 90.1846 91.7262C90.0803 91.8514 90.0594 91.9349 90.0594 92.1748C90.0594 92.1957 90.268 92.7486 90.435 93.1451C90.5497 93.5519 90.654 94.011 90.581 94.4491C90.3202 95.0229 89.7777 95.5445 89.2665 95.8262C89.0057 95.9097 88.7762 95.8784 88.7136 95.8262C88.6093 95.7532 88.5571 95.6384 88.5675 95.5132C89.0057 95.2107 89.496 94.9603 89.8925 94.1466C90.0072 93.8336 90.0385 93.6458 89.9238 93.1659C89.8925 92.999 89.8194 92.8425 89.7047 92.7069C89.7777 92.6756 89.9655 92.8112 89.9968 92.7278C89.9551 92.4983 89.7986 92.1853 89.6212 92.0288C89.4647 91.8827 89.2978 91.8723 89.1518 91.9975C88.9953 92.081 88.9535 92.4044 89.037 92.686C89.1205 92.8947 89.35 92.9364 89.5169 93.3537C89.5169 93.385 89.5691 93.6667 89.4856 93.7919C89.423 94.0005 88.5571 94.6787 88.4945 94.7204V94.5848C88.4945 94.4596 88.5362 94.1675 88.5362 94.1153C88.2546 94.3031 88.1607 94.8664 88.1085 95.0333C87.3887 95.5341 86.5645 95.8992 86.095 96.4104C85.8447 96.7964 87.7851 95.9723 88.0146 95.8679C88.0563 95.9097 88.0563 96.0766 88.192 96.2226C88.3902 96.4939 88.8179 96.6608 89.2352 96.5565C89.9342 96.3061 90.3411 95.8262 90.7479 95.2942C90.8105 95.2107 90.894 95.1377 90.9879 95.2107C91.2696 95.8471 92.0833 96.2852 93.137 96.3374C93.3769 96.0453 93.2622 95.8992 93.1683 95.8367C93.137 95.8158 92.6466 95.628 92.5736 95.4298C92.5215 95.2524 92.6466 95.0959 92.8762 94.9708C93.5543 94.8873 94.2115 94.7934 94.8583 94.5952C94.8583 94.3761 94.994 94.0527 95.0774 93.9171C95.0983 93.8649 95.14 93.8232 95.1922 93.7919V93.771L95.0879 93.7084H92.9388C92.9388 93.7084 92.897 93.6771 92.8762 93.6667V93.6458C92.8762 93.6458 92.9179 93.6145 92.9388 93.6041C93.45 93.5311 94.368 93.385 94.4306 92.5087C94.4306 92.0496 94.2324 91.7471 93.669 91.6741C93.2517 91.7054 92.9596 92.1018 93.0118 92.54C92.9909 92.6547 93.0535 92.8947 92.9283 92.9155C92.1355 92.9886 91.2696 93.4893 91.2487 93.8336H91.2174C91.2174 93.8336 91.1026 93.7293 91.1131 93.6145C91.0713 92.9677 90.894 92.3418 90.5706 91.7784C90.4558 91.6637 90.4141 91.6219 90.3828 91.6115H90.3724V91.5802L90.2993 91.6219ZM92.3545 91.9453C92.3024 91.9558 92.2606 91.9975 92.2502 92.0496C92.2502 92.0914 92.2711 92.154 92.2294 92.1748C92.2085 92.1957 92.125 92.1748 92.1355 92.0705C92.1355 92.0392 92.1146 91.9975 92.0937 91.9766C92.0833 91.9662 92.0624 91.9662 92.0416 91.9662C92.0103 91.9662 92.0103 91.9766 91.9894 92.0079C91.9894 92.0392 91.9685 92.0705 91.9685 92.1018C91.9685 92.1435 91.9477 92.154 91.9164 92.1644C91.8851 92.1748 91.8955 92.1644 91.8642 92.154C91.8433 92.1331 91.8329 92.1331 91.8329 92.1018C91.8329 92.0705 91.8329 92.0392 91.8225 92.0079C91.8016 91.9871 91.7808 91.9766 91.7599 91.9766C91.6243 91.9766 91.6138 92.1331 91.6243 92.1853C91.6243 92.1957 91.6034 92.4774 91.7912 92.5504C92.0416 92.6652 92.6258 92.6026 92.4902 92.2166C92.4902 92.1853 92.4902 92.0601 92.4797 92.0288C92.4693 91.9766 92.4171 91.9453 92.365 91.9558L92.3545 91.9453ZM100.669 92.2792C100.669 92.2792 100.659 92.2792 100.648 92.2792C100.648 92.2792 99.5008 93.0929 99.4695 93.1242C99.3547 93.2285 99.4173 93.5832 99.4695 93.5415C99.553 93.5728 100.711 92.7904 100.69 92.6965C100.742 92.6965 100.763 92.2896 100.669 92.2792ZM93.45 92.4044C93.5125 92.4044 93.5647 92.4148 93.6169 92.4461C93.7003 92.4982 93.7525 92.5713 93.7525 92.6234V92.6443C93.7525 92.6443 93.7525 92.6443 93.7421 92.6547C93.7003 92.6965 93.6064 92.686 93.5125 92.6339C93.4187 92.5817 93.3769 92.5087 93.3769 92.4565V92.4357V92.4148C93.3978 92.4044 93.4082 92.3939 93.4291 92.3939L93.45 92.4044ZM83.393 92.613C82.7984 92.6234 81.922 93.3955 81.9012 93.8232C82.5271 93.5206 83.1426 93.2285 83.7895 92.9155C83.6851 92.7591 83.7895 92.6234 83.393 92.613ZM85.3126 92.8843C85.3856 92.8843 85.4482 92.926 85.4691 92.999C85.49 93.0616 85.4795 93.1346 85.4378 93.1868C85.4169 93.2181 85.323 93.2077 85.2604 93.2077C85.1978 93.2077 85.1352 93.1868 85.1039 93.1346C85.0831 93.0616 85.1457 92.999 85.177 92.9468C85.177 92.9468 85.177 92.9364 85.1874 92.9364C85.2187 92.9156 85.25 92.8947 85.2917 92.8947H85.3126V92.8843ZM100.45 93.1138C100.335 93.1242 100.262 93.2285 100.273 93.3329C100.273 93.3537 100.273 93.3641 100.283 93.385C100.252 93.4789 100.429 93.8023 100.471 93.9797C100.513 94.1049 100.419 94.4596 100.502 94.4909C100.586 94.5222 100.784 94.2822 100.774 93.9692C100.794 93.8128 100.721 93.2181 100.513 93.1138C100.492 93.1138 100.461 93.1138 100.44 93.1138H100.45ZM87.5973 93.698C87.5034 93.698 87.42 93.7502 87.4617 93.8858C87.4617 93.9797 87.7225 94.0944 87.7434 94.3239C87.7851 94.4178 87.6808 94.7099 87.7642 94.7308C87.8477 94.7517 87.9416 94.5326 87.9833 94.3135C88.0042 94.1988 87.8894 93.7815 87.7016 93.7084C87.6703 93.7084 87.639 93.7084 87.6078 93.7084L87.5973 93.698ZM91.4469 94.2196H91.4678C91.7077 94.2822 92.0624 94.2926 92.365 94.3239C92.6153 94.3448 92.7405 94.5326 92.5006 94.616C92.2606 94.6995 92.052 94.7621 92.052 95.096C92.0833 95.2629 92.0729 95.3463 92.052 95.3881C92.052 95.3881 92.052 95.3881 92.0416 95.3881C92.0416 95.3881 92.0416 95.3881 92.0311 95.3881C91.979 95.3881 91.8955 95.3463 91.8329 95.315C91.6869 95.2107 91.2904 94.9603 91.2383 94.4387C91.2383 94.3135 91.3322 94.2092 91.4573 94.2092C91.4573 94.2092 91.4573 94.2092 91.4678 94.2092L91.4469 94.2196ZM82.0472 94.6265C82.0472 94.6265 82.0055 94.6682 81.9638 94.7204C81.6091 95.2837 81.5778 96.1288 81.776 96.3791C81.8803 96.4939 82.0264 96.5461 82.1724 96.5148C82.3915 96.4209 82.4958 95.9723 82.4437 95.8054C82.3706 95.6906 82.308 95.6697 82.235 95.7741C82.0785 96.087 82.0159 95.8784 81.9951 95.701C81.9742 95.3985 81.9951 95.1064 82.0368 94.8038C82.0577 94.6786 82.0577 94.6369 82.0368 94.6369L82.0472 94.6265ZM94.1072 95.3672C94.1072 95.3672 94.055 95.3672 94.0237 95.3881C94.0237 95.3881 93.7734 95.555 93.6899 95.6697C93.6377 95.7115 93.6482 95.7428 93.6586 95.8054C93.7003 95.8888 93.7629 95.868 93.836 95.8262C93.9403 95.8158 93.982 95.8784 93.982 96.0036C93.9507 96.0766 93.9611 96.1601 94.0029 96.2226C94.055 96.2852 94.1489 96.2957 94.2115 96.2539C94.4515 96.1601 94.5975 96.0766 94.9418 96.0036C95.0253 96.0036 95.0253 95.7636 94.8896 95.7532C94.7123 95.7532 94.5349 95.7741 94.3576 95.9097C94.2428 95.9306 94.222 95.8679 94.2011 95.8054C94.1698 95.6489 94.2637 95.5445 94.2428 95.4298C94.2011 95.3985 94.1594 95.3776 94.1072 95.3776V95.3672ZM101.827 95.6593C101.827 95.6593 101.733 95.6593 101.671 95.6697C101.608 95.6802 101.566 95.7219 101.556 95.8054C101.556 95.941 101.639 95.9305 101.733 95.9827C101.786 96.0453 101.817 96.0975 101.733 96.2018C101.65 96.2748 101.598 96.3165 101.514 96.3896C101.473 96.4522 101.452 96.5565 101.566 96.5878C101.786 96.6504 102.276 96.327 102.276 96.3166C102.328 96.2748 102.349 96.2018 102.328 96.1392C102.276 96.087 102.172 96.1183 102.109 96.1079C102.078 96.1079 101.963 96.087 102.015 95.9931C102.057 95.941 102.088 95.8784 102.109 95.8158C102.14 95.7428 102.109 95.6906 101.994 95.6489C101.942 95.6489 101.9 95.6384 101.848 95.6384L101.827 95.6593ZM98.6036 100.072C98.2489 100.166 98.2593 100.531 98.4888 100.698C94.7227 100.698 88.9327 100.636 87.6912 100.636C86.9922 100.636 84.8014 100.552 84.7597 100.552C85.2291 101.241 85.9177 101.387 86.8044 101.397C88.4841 101.397 96.2354 101.376 98.4471 101.376C98.2906 101.658 98.4576 102.107 98.5827 102.19C98.5827 102.19 98.5827 102.19 98.5932 102.2C98.7392 102.232 98.8018 102.127 98.854 102.054C99.0939 102.075 100.429 102.096 100.544 102.054C100.628 102.18 100.711 102.294 100.867 102.274C101.139 102.211 101.358 102.19 101.368 101.627C101.368 101.627 101.337 100.677 100.711 100.729C100.565 100.75 100.148 100.792 100.148 100.792C99.6677 100.74 99.313 100.729 98.7705 100.709C98.8227 100.646 98.9062 100.385 98.8018 100.291C98.7705 100.26 98.7184 100.25 98.6766 100.26C98.6766 100.26 98.6349 100.124 98.614 100.093H98.6036V100.072ZM98.854 101.428C99.4069 101.46 99.9181 101.428 100.471 101.46C100.554 101.533 100.513 101.7 100.461 101.731H100.45H99.9911C99.9911 101.731 99.9911 101.7 99.9911 101.689C99.9494 101.564 99.6364 101.575 99.5738 101.668V101.679C99.5738 101.679 99.5738 101.679 99.5738 101.689C99.5738 101.689 99.5738 101.689 99.5738 101.7C99.3339 101.731 99.1148 101.7 98.8749 101.679C98.8018 101.595 98.8123 101.428 98.8957 101.397L98.854 101.428Z" fill="white"/>
</g>
</g>
</g>
<defs>
<filter id="filter0_d_42_3" x="84.3741" y="0.754666" width="560.403" height="392.221" filterUnits="userSpaceOnUse" color-interpolation-filters="sRGB">
<feFlood flood-opacity="0" result="BackgroundImageFix"/>
<feColorMatrix in="SourceAlpha" type="matrix" values="0 0 0 0 0 0 0 0 0 0 0 0 0 0 0 0 0 0 127 0" result="hardAlpha"/>
<feOffset dy="5.21625"/>
<feGaussianBlur stdDeviation="12.519"/>
<feComposite in2="hardAlpha" operator="out"/>
<feColorMatrix type="matrix" values="0 0 0 0 0 0 0 0 0 0 0 0 0 0 0 0 0 0 0.08 0"/>
<feBlend mode="normal" in2="BackgroundImageFix" result="effect1_dropShadow_42_3"/>
<feBlend mode="normal" in="SourceGraphic" in2="effect1_dropShadow_42_3" result="shape"/>
</filter>
<filter id="filter1_d_42_3" x="19.8761" y="0.754422" width="107.392" height="283.263" filterUnits="userSpaceOnUse" color-interpolation-filters="sRGB">
<feFlood flood-opacity="0" result="BackgroundImageFix"/>
<feColorMatrix in="SourceAlpha" type="matrix" values="0 0 0 0 0 0 0 0 0 0 0 0 0 0 0 0 0 0 127 0" result="hardAlpha"/>
<feOffset dy="5.21625"/>
<feGaussianBlur stdDeviation="12.519"/>
<feComposite in2="hardAlpha" operator="out"/>
<feColorMatrix type="matrix" values="0 0 0 0 0 0 0 0 0 0 0 0 0 0 0 0 0 0 0.08 0"/>
<feBlend mode="normal" in2="BackgroundImageFix" result="effect1_dropShadow_42_3"/>
<feBlend mode="normal" in="SourceGraphic" in2="effect1_dropShadow_42_3" result="shape"/>
</filter>
<filter id="filter2_d_42_3" x="0.962" y="55.1807" width="145.53" height="90.9298" filterUnits="userSpaceOnUse" color-interpolation-filters="sRGB">
<feFlood flood-opacity="0" result="BackgroundImageFix"/>
<feColorMatrix in="SourceAlpha" type="matrix" values="0 0 0 0 0 0 0 0 0 0 0 0 0 0 0 0 0 0 127 0" result="hardAlpha"/>
<feOffset dy="5.21625"/>
<feGaussianBlur stdDeviation="12.519"/>
<feComposite in2="hardAlpha" operator="out"/>
<feColorMatrix type="matrix" values="0 0 0 0 0 0 0 0 0 0 0 0 0 0 0 0 0 0 0.08 0"/>
<feBlend mode="normal" in2="BackgroundImageFix" result="effect1_dropShadow_42_3"/>
<feBlend mode="normal" in="SourceGraphic" in2="effect1_dropShadow_42_3" result="shape"/>
</filter>
<clipPath id="clip0_42_3">
<rect width="561" height="393" fill="white" transform="translate(84)"/>
</clipPath>
<clipPath id="clip1_42_3">
<rect width="147" height="285" fill="white"/>
</clipPath>
</defs>
</svg>
