<svg width="561" height="393" viewBox="0 0 561 393" fill="none" xmlns="http://www.w3.org/2000/svg">
<g clip-path="url(#clip0_23_888)">
<g filter="url(#filter0_d_23_888)">
<path d="M527.111 20.5764H34.0398C29.2721 20.5764 25.4121 24.5825 25.4121 29.5275V353.77C25.4121 358.715 29.2721 362.721 34.0398 362.721H527.111C531.879 362.721 535.739 358.715 535.739 353.77V29.5275C535.739 24.5825 531.879 20.5764 527.111 20.5764Z" fill="white"/>
</g>
<path d="M520.248 27.8896H40.906C36.2635 27.8896 32.5078 31.7288 32.5078 36.4547V346.832C32.5078 351.558 36.2635 355.397 40.906 355.397H520.248C524.891 355.397 528.646 351.558 528.646 346.832V36.4547C528.646 31.7288 524.891 27.8896 520.248 27.8896Z" fill="#F8F8F8"/>
<path d="M510.93 56.4746H393.846C390.199 56.4746 387.242 59.4312 387.242 63.0784V333.906C387.242 337.553 390.199 340.51 393.846 340.51H510.93C514.577 340.51 517.534 337.553 517.534 333.906V63.0784C517.534 59.4312 514.577 56.4746 510.93 56.4746Z" fill="white"/>
<path d="M491.151 139.037C496.354 139.037 500.572 134.82 500.572 129.617C500.572 124.414 496.354 120.196 491.151 120.196C485.948 120.196 481.73 124.414 481.73 129.617C481.73 134.82 485.948 139.037 491.151 139.037Z" fill="#EEEEEE"/>
<path d="M491.151 169.97C496.354 169.97 500.572 165.752 500.572 160.549C500.572 155.346 496.354 151.128 491.151 151.128C485.948 151.128 481.73 155.346 481.73 160.549C481.73 165.752 485.948 169.97 491.151 169.97Z" fill="#EEEEEE"/>
<path d="M491.151 200.892C496.354 200.892 500.572 196.674 500.572 191.471C500.572 186.268 496.354 182.051 491.151 182.051C485.948 182.051 481.73 186.268 481.73 191.471C481.73 196.674 485.948 200.892 491.151 200.892Z" fill="#414772"/>
<path d="M491.151 231.814C496.354 231.814 500.572 227.596 500.572 222.393C500.572 217.19 496.354 212.972 491.151 212.972C485.948 212.972 481.73 217.19 481.73 222.393C481.73 227.596 485.948 231.814 491.151 231.814Z" fill="#EEEEEE"/>
<path d="M491.151 262.736C496.354 262.736 500.572 258.518 500.572 253.315C500.572 248.112 496.354 243.895 491.151 243.895C485.948 243.895 481.73 248.112 481.73 253.315C481.73 258.518 485.948 262.736 491.151 262.736Z" fill="#EEEEEE"/>
<path d="M491.151 293.668C496.354 293.668 500.572 289.45 500.572 284.247C500.572 279.044 496.354 274.827 491.151 274.827C485.948 274.827 481.73 279.044 481.73 284.247C481.73 289.45 485.948 293.668 491.151 293.668Z" fill="#EEEEEE"/>
<path d="M491.151 324.59C496.354 324.59 500.572 320.372 500.572 315.169C500.572 309.967 496.354 305.749 491.151 305.749C485.948 305.749 481.73 309.967 481.73 315.169C481.73 320.372 485.948 324.59 491.151 324.59Z" fill="#EEEEEE"/>
<path d="M473.446 126H422.554C421.696 126 421 126.817 421 127.824V131.176C421 132.183 421.696 133 422.554 133H473.446C474.304 133 475 132.183 475 131.176V127.824C475 126.817 474.304 126 473.446 126Z" fill="#F8F8F8"/>
<path d="M473.935 157H439.065C438.477 157 438 157.817 438 158.824V162.176C438 163.183 438.477 164 439.065 164H473.935C474.523 164 475 163.183 475 162.176V158.824C475 157.817 474.523 157 473.935 157Z" fill="#F8F8F8"/>
<path d="M472.904 188.268H418.238C417.316 188.268 416.568 189.016 416.568 189.938V193.005C416.568 193.927 417.316 194.674 418.238 194.674H472.904C473.826 194.674 474.573 193.927 474.573 193.005V189.938C474.573 189.016 473.826 188.268 472.904 188.268Z" fill="#414772"/>
<path d="M474.223 219H448.777C448.348 219 448 219.817 448 220.824V224.176C448 225.183 448.348 226 448.777 226H474.223C474.652 226 475 225.183 475 224.176V220.824C475 219.817 474.652 219 474.223 219Z" fill="#F8F8F8"/>
<path d="M473.446 250H422.554C421.696 250 421 250.817 421 251.824V255.176C421 256.183 421.696 257 422.554 257H473.446C474.304 257 475 256.183 475 255.176V251.824C475 250.817 474.304 250 473.446 250Z" fill="#F8F8F8"/>
<path d="M473.561 281H426.439C425.644 281 425 281.7 425 282.564V285.436C425 286.3 425.644 287 426.439 287H473.561C474.356 287 475 286.3 475 285.436V282.564C475 281.7 474.356 281 473.561 281Z" fill="#F8F8F8"/>
<path d="M472.904 311.967H418.238C417.316 311.967 416.568 312.714 416.568 313.636V316.703C416.568 317.625 417.316 318.372 418.238 318.372H472.904C473.826 318.372 474.573 317.625 474.573 316.703V313.636C474.573 312.714 473.826 311.967 472.904 311.967Z" fill="#F8F8F8"/>
<path d="M368.412 56.4746H47.6647C45.0777 56.4746 42.9805 58.5718 42.9805 61.1588V97.2657C42.9805 99.8527 45.0777 101.95 47.6647 101.95H368.412C370.999 101.95 373.096 99.8527 373.096 97.2657V61.1588C373.096 58.5718 370.999 56.4746 368.412 56.4746Z" fill="white"/>
<path d="M368.412 113.144H47.6647C45.0777 113.144 42.9805 115.241 42.9805 117.828V153.935C42.9805 156.522 45.0777 158.619 47.6647 158.619H368.412C370.999 158.619 373.096 156.522 373.096 153.935V117.828C373.096 115.241 370.999 113.144 368.412 113.144Z" fill="white"/>
<path d="M368.412 303.934H47.6647C45.0777 303.934 42.9805 306.031 42.9805 308.618V335.826C42.9805 338.413 45.0777 340.51 47.6647 340.51H368.412C370.999 340.51 373.096 338.413 373.096 335.826V308.618C373.096 306.031 370.999 303.934 368.412 303.934Z" fill="white"/>
<path d="M143.32 169.813H47.6647C45.0777 169.813 42.9805 171.91 42.9805 174.497V288.045C42.9805 290.632 45.0777 292.729 47.6647 292.729H143.32C145.907 292.729 148.004 290.632 148.004 288.045V174.497C148.004 171.91 145.907 169.813 143.32 169.813Z" fill="white"/>
<path d="M255.867 169.813H160.212C157.625 169.813 155.527 171.91 155.527 174.497V288.045C155.527 290.632 157.625 292.729 160.212 292.729H255.867C258.454 292.729 260.551 290.632 260.551 288.045V174.497C260.551 171.91 258.454 169.813 255.867 169.813Z" fill="white"/>
<path d="M368.412 169.813H272.756C270.169 169.813 268.072 171.91 268.072 174.497V288.045C268.072 290.632 270.169 292.729 272.756 292.729H368.412C370.999 292.729 373.096 290.632 373.096 288.045V174.497C373.096 171.91 370.999 169.813 368.412 169.813Z" fill="white"/>
<path d="M360.525 91.2567C362.582 91.2567 364.25 89.5892 364.25 87.5323C364.25 85.4753 362.582 83.8079 360.525 83.8079C358.468 83.8079 356.801 85.4753 356.801 87.5323C356.801 89.5892 358.468 91.2567 360.525 91.2567Z" fill="#EEEEEE"/>
<path d="M362.58 67.168H279.277C278.355 67.168 277.607 67.9153 277.607 68.8372V72.9476C277.607 73.8695 278.355 74.6168 279.277 74.6168H362.58C363.502 74.6168 364.249 73.8695 364.249 72.9476V68.8372C364.249 67.9153 363.502 67.168 362.58 67.168Z" fill="#F8F8F8"/>
<path d="M351.022 83.8079H267.718C266.796 83.8079 266.049 84.5552 266.049 85.4771V89.5875C266.049 90.5093 266.796 91.2567 267.718 91.2567H351.022C351.943 91.2567 352.691 90.5093 352.691 89.5875V85.4771C352.691 84.5552 351.943 83.8079 351.022 83.8079Z" fill="#F8F8F8"/>
<path d="M57.9725 86.7704H74.4976C77.7069 86.7704 80.3085 84.1687 80.3085 80.9595V78.6017C80.3085 75.3924 77.7069 72.7908 74.4976 72.7908H57.9725C54.7632 72.7908 52.1616 75.3924 52.1616 78.6017V80.9595C52.1616 84.1687 54.7632 86.7704 57.9725 86.7704Z" fill="#F8F8F8"/>
<path d="M73.0061 85.4977C76.1635 85.4977 78.7231 82.9382 78.7231 79.7807C78.7231 76.6233 76.1635 74.0637 73.0061 74.0637C69.8487 74.0637 67.2891 76.6233 67.2891 79.7807C67.2891 82.9382 69.8487 85.4977 73.0061 85.4977Z" fill="#EEEEEE" stroke="#E6E6E6" stroke-width="0.521625" stroke-miterlimit="10"/>
<path d="M74.5098 128.887H57.9847C54.7755 128.887 52.1738 131.488 52.1738 134.698V137.055C52.1738 140.265 54.7755 142.866 57.9847 142.866H74.5098C77.7191 142.866 80.3207 140.265 80.3207 137.055V134.698C80.3207 131.488 77.7191 128.887 74.5098 128.887Z" fill="#F8F8F8"/>
<path d="M59.4865 141.593C62.644 141.593 65.2036 139.034 65.2036 135.876C65.2036 132.719 62.644 130.159 59.4865 130.159C56.3291 130.159 53.7695 132.719 53.7695 135.876C53.7695 139.034 56.3291 141.593 59.4865 141.593Z" fill="#414772"/>
<path d="M247.351 276.183C246.725 276.183 246.225 276.684 246.225 277.31C246.225 277.936 246.725 278.437 247.351 278.437C247.977 278.437 248.478 277.936 248.478 277.31C248.478 276.684 247.977 276.183 247.351 276.183ZM247.351 277.873C247.038 277.873 246.788 277.623 246.788 277.31C246.788 276.997 247.038 276.746 247.351 276.746C247.664 276.746 247.915 276.997 247.915 277.31C247.915 277.623 247.664 277.873 247.351 277.873Z" fill="#D5D5D5"/>
<path d="M249.97 277.852L249.845 277.779C249.897 277.477 249.897 277.164 249.845 276.851L249.97 276.778C250.377 276.548 250.512 276.027 250.283 275.62C250.053 275.213 249.532 275.077 249.125 275.307L249 275.38C248.76 275.182 248.489 275.025 248.196 274.921V274.775C248.196 274.305 247.821 273.93 247.351 273.93C246.882 273.93 246.506 274.305 246.506 274.775V274.921C246.214 275.025 245.943 275.182 245.703 275.38L245.578 275.307C245.171 275.077 244.66 275.213 244.42 275.62C244.19 276.027 244.326 276.538 244.733 276.778L244.858 276.851C244.806 277.153 244.806 277.466 244.858 277.779L244.733 277.852C244.326 278.082 244.19 278.603 244.42 279.01C244.649 279.417 245.171 279.553 245.578 279.323L245.703 279.25C245.943 279.448 246.214 279.605 246.506 279.709V279.855C246.506 280.325 246.882 280.7 247.351 280.7C247.821 280.7 248.196 280.325 248.196 279.855V279.709C248.489 279.605 248.76 279.448 249 279.25L249.125 279.323C249.532 279.553 250.043 279.417 250.283 279.01C250.512 278.603 250.377 278.092 249.97 277.852ZM249.25 276.788C249.344 277.132 249.344 277.498 249.25 277.842C249.219 277.967 249.271 278.092 249.386 278.165L249.688 278.343C249.824 278.416 249.866 278.593 249.793 278.729C249.72 278.864 249.542 278.906 249.407 278.833L249.104 278.656C248.989 278.593 248.854 278.614 248.76 278.697C248.509 278.958 248.196 279.136 247.852 279.229C247.727 279.261 247.644 279.375 247.644 279.501V279.855C247.644 280.012 247.518 280.137 247.362 280.137C247.205 280.137 247.08 280.012 247.08 279.855V279.501C247.08 279.375 246.997 279.261 246.872 279.229C246.527 279.136 246.214 278.958 245.964 278.697C245.87 278.603 245.734 278.583 245.62 278.656L245.317 278.833C245.181 278.916 245.015 278.864 244.931 278.729C244.848 278.593 244.9 278.426 245.035 278.343L245.338 278.165C245.453 278.103 245.505 277.967 245.474 277.842C245.38 277.498 245.38 277.132 245.474 276.788C245.505 276.663 245.453 276.538 245.338 276.475L245.035 276.298C244.9 276.225 244.858 276.047 244.931 275.912C245.004 275.776 245.181 275.735 245.317 275.808L245.62 275.985C245.734 276.047 245.87 276.027 245.964 275.943C246.214 275.682 246.527 275.505 246.872 275.411C246.997 275.38 247.08 275.265 247.08 275.14V274.785C247.08 274.629 247.205 274.503 247.362 274.503C247.518 274.503 247.644 274.629 247.644 274.785V275.14C247.644 275.265 247.727 275.38 247.852 275.411C248.196 275.505 248.509 275.682 248.76 275.943C248.854 276.037 248.989 276.058 249.104 275.985L249.407 275.808C249.542 275.724 249.709 275.776 249.793 275.912C249.876 276.047 249.824 276.214 249.688 276.298L249.386 276.475C249.271 276.538 249.219 276.673 249.261 276.788H249.25Z" fill="#D5D5D5"/>
<path d="M363.114 144.974C363.114 145.109 363 145.224 362.864 145.224H362.353C362.217 145.224 362.102 145.109 362.102 144.974C362.102 144.838 362.217 144.723 362.353 144.723H362.864C363 144.723 363.114 144.838 363.114 144.974ZM364.251 144.723V145.986C364.251 146.549 363.792 146.998 363.239 146.998H359.192C358.628 146.998 358.18 146.539 358.18 145.986V144.723C358.18 144.16 358.639 143.712 359.192 143.712H359.442V141.938C359.442 141.375 359.901 140.926 360.454 140.926H361.977C362.54 140.926 362.989 141.385 362.989 141.938V143.712H363.239C363.803 143.712 364.251 144.171 364.251 144.723ZM359.943 143.712H362.478V141.938C362.478 141.656 362.248 141.427 361.967 141.427H360.444C360.162 141.427 359.932 141.656 359.932 141.938V143.712H359.943ZM359.192 146.487H360.965V144.212H359.192C358.91 144.212 358.68 144.442 358.68 144.723V145.986C358.68 146.267 358.91 146.497 359.192 146.497V146.487ZM363.74 144.723C363.74 144.442 363.511 144.212 363.229 144.212H361.456V146.487H363.229C363.511 146.487 363.74 146.257 363.74 145.975V144.713V144.723ZM360.068 144.723H359.557C359.421 144.723 359.306 144.838 359.306 144.974C359.306 145.109 359.421 145.224 359.557 145.224H360.068C360.204 145.224 360.318 145.109 360.318 144.974C360.318 144.838 360.204 144.723 360.068 144.723ZM361.716 142.188C361.716 142.053 361.602 141.938 361.466 141.938H360.955C360.819 141.938 360.704 142.053 360.704 142.188C360.704 142.324 360.819 142.439 360.955 142.439H361.466C361.602 142.439 361.716 142.324 361.716 142.188Z" fill="#D5D5D5"/>
<path d="M57.9725 285.374H74.4976C77.7069 285.374 80.3085 282.772 80.3085 279.563V277.205C80.3085 273.996 77.7069 271.394 74.4976 271.394H57.9725C54.7632 271.394 52.1616 273.996 52.1616 277.205V279.563C52.1616 282.772 54.7632 285.374 57.9725 285.374Z" fill="#F8F8F8"/>
<path d="M73.0061 284.112C76.1635 284.112 78.7231 281.552 78.7231 278.395C78.7231 275.237 76.1635 272.678 73.0061 272.678C69.8487 272.678 67.2891 275.237 67.2891 278.395C67.2891 281.552 69.8487 284.112 73.0061 284.112Z" fill="#EEEEEE" stroke="#E6E6E6" stroke-width="0.521625" stroke-miterlimit="10"/>
<path d="M95.4888 225.387C104.2 225.387 111.263 218.325 111.263 209.613C111.263 200.902 104.2 193.839 95.4888 193.839C86.7771 193.839 79.7148 200.902 79.7148 209.613C79.7148 218.325 86.7771 225.387 95.4888 225.387Z" fill="#EEEEEE"/>
<path d="M137.145 231.271H53.8411C52.9192 231.271 52.1719 232.019 52.1719 232.94V237.051C52.1719 237.973 52.9192 238.72 53.8411 238.72H137.145C138.066 238.72 138.814 237.973 138.814 237.051V232.94C138.814 232.019 138.066 231.271 137.145 231.271Z" fill="#F8F8F8"/>
<path d="M134.453 282.119C136.51 282.119 138.177 280.452 138.177 278.395C138.177 276.338 136.51 274.67 134.453 274.67C132.396 274.67 130.729 276.338 130.729 278.395C130.729 280.452 132.396 282.119 134.453 282.119Z" fill="#EEEEEE"/>
<path d="M124.95 274.67H90.304C89.3821 274.67 88.6348 275.418 88.6348 276.34V280.45C88.6348 281.372 89.3821 282.119 90.304 282.119H124.95C125.872 282.119 126.62 281.372 126.62 280.45V276.34C126.62 275.418 125.872 274.67 124.95 274.67Z" fill="#F8F8F8"/>
<path d="M186.082 271.405H169.557C166.348 271.405 163.746 274.007 163.746 277.216V279.574C163.746 282.783 166.348 285.385 169.557 285.385H186.082C189.291 285.385 191.893 282.783 191.893 279.574V277.216C191.893 274.007 189.291 271.405 186.082 271.405Z" fill="white" stroke="#E6E6E6" stroke-width="0.521625" stroke-miterlimit="10"/>
<path d="M171.059 284.112C174.216 284.112 176.776 281.552 176.776 278.395C176.776 275.237 174.216 272.678 171.059 272.678C167.901 272.678 165.342 275.237 165.342 278.395C165.342 281.552 167.901 284.112 171.059 284.112Z" fill="#414772"/>
<path d="M283.422 285.374H299.947C303.156 285.374 305.758 282.773 305.758 279.563V277.206C305.758 273.996 303.156 271.395 299.947 271.395H283.422C280.213 271.395 277.611 273.996 277.611 277.206V279.563C277.611 282.773 280.213 285.374 283.422 285.374Z" fill="#F8F8F8"/>
<path d="M298.444 284.112C301.601 284.112 304.161 281.552 304.161 278.395C304.161 275.238 301.601 272.678 298.444 272.678C295.286 272.678 292.727 275.238 292.727 278.395C292.727 281.552 295.286 284.112 298.444 284.112Z" fill="#EEEEEE" stroke="#E6E6E6" stroke-width="0.521625" stroke-miterlimit="10"/>
<path d="M320.926 225.387C329.638 225.387 336.7 218.325 336.7 209.613C336.7 200.902 329.638 193.839 320.926 193.839C312.215 193.839 305.152 200.902 305.152 209.613C305.152 218.325 312.215 225.387 320.926 225.387Z" fill="#EEEEEE"/>
<path d="M207.774 225.387C216.486 225.387 223.548 218.325 223.548 209.613C223.548 200.902 216.486 193.839 207.774 193.839C199.063 193.839 192 200.902 192 209.613C192 218.325 199.063 225.387 207.774 225.387Z" fill="#EEEEEE"/>
<path d="M362.582 231.271H279.279C278.357 231.271 277.609 232.019 277.609 232.94V237.051C277.609 237.973 278.357 238.72 279.279 238.72H362.582C363.504 238.72 364.251 237.973 364.251 237.051V232.94C364.251 232.019 363.504 231.271 362.582 231.271Z" fill="#F8F8F8"/>
<path d="M359.89 282.119C361.947 282.119 363.615 280.452 363.615 278.395C363.615 276.338 361.947 274.67 359.89 274.67C357.833 274.67 356.166 276.338 356.166 278.395C356.166 280.452 357.833 282.119 359.89 282.119Z" fill="#EEEEEE"/>
<path d="M350.386 274.67H315.74C314.818 274.67 314.07 275.418 314.07 276.34V280.45C314.07 281.372 314.818 282.119 315.74 282.119H350.386C351.308 282.119 352.055 281.372 352.055 280.45V276.34C352.055 275.418 351.308 274.67 350.386 274.67Z" fill="#F8F8F8"/>
<path d="M109.602 317.12H55.4368C54.5149 317.12 53.7676 317.868 53.7676 318.79V325.654C53.7676 326.576 54.5149 327.323 55.4368 327.323H109.602C110.524 327.323 111.272 326.576 111.272 325.654V318.79C111.272 317.868 110.524 317.12 109.602 317.12Z" fill="#F8F8F8"/>
<path d="M193.929 317.12H139.763C138.841 317.12 138.094 317.868 138.094 318.79V325.654C138.094 326.576 138.841 327.323 139.763 327.323H193.929C194.85 327.323 195.598 326.576 195.598 325.654V318.79C195.598 317.868 194.85 317.12 193.929 317.12Z" fill="#F8F8F8"/>
<path d="M278.255 317.12H224.089C223.167 317.12 222.42 317.868 222.42 318.79V325.654C222.42 326.576 223.167 327.323 224.089 327.323H278.255C279.177 327.323 279.924 326.576 279.924 325.654V318.79C279.924 317.868 279.177 317.12 278.255 317.12Z" fill="#F8F8F8"/>
<path d="M362.581 317.12H308.415C307.493 317.12 306.746 317.868 306.746 318.79V325.654C306.746 326.576 307.493 327.323 308.415 327.323H362.581C363.503 327.323 364.25 326.576 364.25 325.654V318.79C364.25 317.868 363.503 317.12 362.581 317.12Z" fill="#F8F8F8"/>
<path d="M46.8614 45.0301C49.0047 45.0301 50.7423 43.2926 50.7423 41.1492C50.7423 39.0058 49.0047 37.2683 46.8614 37.2683C44.718 37.2683 42.9805 39.0058 42.9805 41.1492C42.9805 43.2926 44.718 45.0301 46.8614 45.0301Z" fill="#E85254"/>
<path d="M58.1797 45.0301C60.3231 45.0301 62.0606 43.2926 62.0606 41.1492C62.0606 39.0058 60.3231 37.2683 58.1797 37.2683C56.0364 37.2683 54.2988 39.0058 54.2988 41.1492C54.2988 43.2926 56.0364 45.0301 58.1797 45.0301Z" fill="#FD9C06"/>
<path d="M69.5 45.0301C71.6434 45.0301 73.3809 43.2926 73.3809 41.1492C73.3809 39.0058 71.6434 37.2683 69.5 37.2683C67.3567 37.2683 65.6191 39.0058 65.6191 41.1492C65.6191 43.2926 67.3567 45.0301 69.5 45.0301Z" fill="#29C56D"/>
<path d="M452.393 108.992C462.914 108.992 471.443 100.463 471.443 89.9421C471.443 79.4212 462.914 70.8923 452.393 70.8923C441.873 70.8923 433.344 79.4212 433.344 89.9421C433.344 100.463 441.873 108.992 452.393 108.992Z" fill="#EEEEEE"/>
<path d="M456.473 82.9419H448.315C446.708 82.9419 445.404 84.246 445.404 85.8526V94.0108C445.404 95.6174 446.708 96.9214 448.315 96.9214H456.473C458.08 96.9214 459.384 95.6174 459.384 94.0108V85.8526C459.384 84.246 458.08 82.9419 456.473 82.9419ZM448.315 84.1103H456.473C457.443 84.1103 458.226 84.8928 458.226 85.863V94.0212C458.226 94.282 458.163 94.5324 458.048 94.7723L452.707 89.4309C451.57 88.2938 449.723 88.2938 448.586 89.4309L446.562 91.4548V85.863C446.562 84.8928 447.345 84.1103 448.315 84.1103ZM448.315 95.7739C447.345 95.7739 446.562 94.9914 446.562 94.0212V93.0927L449.41 90.2446C450.088 89.5665 451.205 89.5561 451.883 90.2446L457.224 95.5861C456.995 95.7008 456.734 95.7634 456.473 95.7634H448.315V95.7739Z" fill="#D5D5D5"/>
<path d="M454.721 89.0656C455.847 89.0656 456.765 88.1476 456.765 87.0208C456.765 85.8941 455.847 84.9761 454.721 84.9761C453.594 84.9761 452.676 85.8941 452.676 87.0208C452.676 88.1476 453.594 89.0656 454.721 89.0656ZM454.721 86.155C455.2 86.155 455.597 86.5514 455.597 87.0313C455.597 87.5112 455.2 87.9076 454.721 87.9076C454.241 87.9076 453.844 87.5112 453.844 87.0313C453.844 86.5514 454.241 86.155 454.721 86.155Z" fill="#D5D5D5"/>
</g>
<defs>
<filter id="filter0_d_23_888" x="0.374109" y="0.754666" width="560.403" height="392.221" filterUnits="userSpaceOnUse" color-interpolation-filters="sRGB">
<feFlood flood-opacity="0" result="BackgroundImageFix"/>
<feColorMatrix in="SourceAlpha" type="matrix" values="0 0 0 0 0 0 0 0 0 0 0 0 0 0 0 0 0 0 127 0" result="hardAlpha"/>
<feOffset dy="5.21625"/>
<feGaussianBlur stdDeviation="12.519"/>
<feComposite in2="hardAlpha" operator="out"/>
<feColorMatrix type="matrix" values="0 0 0 0 0 0 0 0 0 0 0 0 0 0 0 0 0 0 0.08 0"/>
<feBlend mode="normal" in2="BackgroundImageFix" result="effect1_dropShadow_23_888"/>
<feBlend mode="normal" in="SourceGraphic" in2="effect1_dropShadow_23_888" result="shape"/>
</filter>
<clipPath id="clip0_23_888">
<rect width="561" height="393" fill="white"/>
</clipPath>
</defs>
</svg>
