<svg width="561" height="434" viewBox="0 0 561 434" fill="none" xmlns="http://www.w3.org/2000/svg">
<g clip-path="url(#clip0_43_4)">
<g filter="url(#filter0_d_43_4)">
<path d="M527.111 40.5764H34.0398C29.2721 40.5764 25.4121 44.5825 25.4121 49.5275V373.77C25.4121 378.715 29.2721 382.721 34.0398 382.721H527.111C531.879 382.721 535.739 378.715 535.739 373.77V49.5275C535.739 44.5825 531.879 40.5764 527.111 40.5764Z" fill="white"/>
</g>
<path d="M520.248 47.8896H40.906C36.2635 47.8896 32.5078 51.7288 32.5078 56.4547V366.832C32.5078 371.558 36.2635 375.397 40.906 375.397H520.248C524.891 375.397 528.646 371.558 528.646 366.832V56.4547C528.646 51.7288 524.891 47.8896 520.248 47.8896Z" fill="#F8F8F8"/>
<path d="M510.93 76.4746H393.846C390.199 76.4746 387.242 79.4312 387.242 83.0784V353.906C387.242 357.553 390.199 360.51 393.846 360.51H510.93C514.577 360.51 517.534 357.553 517.534 353.906V83.0784C517.534 79.4312 514.577 76.4746 510.93 76.4746Z" fill="white"/>
<path d="M491.151 159.037C496.354 159.037 500.572 154.82 500.572 149.617C500.572 144.414 496.354 140.196 491.151 140.196C485.948 140.196 481.73 144.414 481.73 149.617C481.73 154.82 485.948 159.037 491.151 159.037Z" fill="#EEEEEE"/>
<path d="M491.151 189.97C496.354 189.97 500.572 185.752 500.572 180.549C500.572 175.346 496.354 171.128 491.151 171.128C485.948 171.128 481.73 175.346 481.73 180.549C481.73 185.752 485.948 189.97 491.151 189.97Z" fill="#EEEEEE"/>
<path d="M491.151 220.892C496.354 220.892 500.572 216.674 500.572 211.471C500.572 206.268 496.354 202.051 491.151 202.051C485.948 202.051 481.73 206.268 481.73 211.471C481.73 216.674 485.948 220.892 491.151 220.892Z" fill="#414772"/>
<path d="M491.151 251.814C496.354 251.814 500.572 247.596 500.572 242.393C500.572 237.19 496.354 232.972 491.151 232.972C485.948 232.972 481.73 237.19 481.73 242.393C481.73 247.596 485.948 251.814 491.151 251.814Z" fill="#EEEEEE"/>
<path d="M491.151 282.736C496.354 282.736 500.572 278.518 500.572 273.315C500.572 268.112 496.354 263.895 491.151 263.895C485.948 263.895 481.73 268.112 481.73 273.315C481.73 278.518 485.948 282.736 491.151 282.736Z" fill="#EEEEEE"/>
<path d="M491.151 313.668C496.354 313.668 500.572 309.45 500.572 304.247C500.572 299.044 496.354 294.827 491.151 294.827C485.948 294.827 481.73 299.044 481.73 304.247C481.73 309.45 485.948 313.668 491.151 313.668Z" fill="#EEEEEE"/>
<path d="M491.151 344.59C496.354 344.59 500.572 340.372 500.572 335.169C500.572 329.967 496.354 325.749 491.151 325.749C485.948 325.749 481.73 329.967 481.73 335.169C481.73 340.372 485.948 344.59 491.151 344.59Z" fill="#EEEEEE"/>
<path d="M473.446 146H422.554C421.696 146 421 146.817 421 147.824V151.176C421 152.183 421.696 153 422.554 153H473.446C474.304 153 475 152.183 475 151.176V147.824C475 146.817 474.304 146 473.446 146Z" fill="#F8F8F8"/>
<path d="M473.935 177H439.065C438.477 177 438 177.817 438 178.824V182.176C438 183.183 438.477 184 439.065 184H473.935C474.523 184 475 183.183 475 182.176V178.824C475 177.817 474.523 177 473.935 177Z" fill="#F8F8F8"/>
<path d="M472.904 208.268H418.238C417.316 208.268 416.568 209.016 416.568 209.938V213.005C416.568 213.927 417.316 214.674 418.238 214.674H472.904C473.826 214.674 474.573 213.927 474.573 213.005V209.938C474.573 209.016 473.826 208.268 472.904 208.268Z" fill="#414772"/>
<path d="M474.223 239H448.777C448.348 239 448 239.817 448 240.824V244.176C448 245.183 448.348 246 448.777 246H474.223C474.652 246 475 245.183 475 244.176V240.824C475 239.817 474.652 239 474.223 239Z" fill="#F8F8F8"/>
<path d="M473.446 270H422.554C421.696 270 421 270.817 421 271.824V275.176C421 276.183 421.696 277 422.554 277H473.446C474.304 277 475 276.183 475 275.176V271.824C475 270.817 474.304 270 473.446 270Z" fill="#F8F8F8"/>
<path d="M473.561 301H426.439C425.644 301 425 301.7 425 302.564V305.436C425 306.3 425.644 307 426.439 307H473.561C474.356 307 475 306.3 475 305.436V302.564C475 301.7 474.356 301 473.561 301Z" fill="#F8F8F8"/>
<path d="M472.904 331.967H418.238C417.316 331.967 416.568 332.714 416.568 333.636V336.703C416.568 337.625 417.316 338.372 418.238 338.372H472.904C473.826 338.372 474.573 337.625 474.573 336.703V333.636C474.573 332.714 473.826 331.967 472.904 331.967Z" fill="#F8F8F8"/>
<path d="M368.412 76.4746H47.6647C45.0777 76.4746 42.9805 78.5718 42.9805 81.1588V117.266C42.9805 119.853 45.0777 121.95 47.6647 121.95H368.412C370.999 121.95 373.096 119.853 373.096 117.266V81.1588C373.096 78.5718 370.999 76.4746 368.412 76.4746Z" fill="white"/>
<path d="M368.412 133.144H47.6647C45.0777 133.144 42.9805 135.241 42.9805 137.828V173.935C42.9805 176.522 45.0777 178.619 47.6647 178.619H368.412C370.999 178.619 373.096 176.522 373.096 173.935V137.828C373.096 135.241 370.999 133.144 368.412 133.144Z" fill="white"/>
<path d="M368.412 323.934H47.6647C45.0777 323.934 42.9805 326.031 42.9805 328.618V355.826C42.9805 358.413 45.0777 360.51 47.6647 360.51H368.412C370.999 360.51 373.096 358.413 373.096 355.826V328.618C373.096 326.031 370.999 323.934 368.412 323.934Z" fill="white"/>
<path d="M143.32 189.813H47.6647C45.0777 189.813 42.9805 191.91 42.9805 194.497V308.045C42.9805 310.632 45.0777 312.729 47.6647 312.729H143.32C145.907 312.729 148.004 310.632 148.004 308.045V194.497C148.004 191.91 145.907 189.813 143.32 189.813Z" fill="white"/>
<path d="M255.867 189.813H160.212C157.625 189.813 155.527 191.91 155.527 194.497V308.045C155.527 310.632 157.625 312.729 160.212 312.729H255.867C258.454 312.729 260.551 310.632 260.551 308.045V194.497C260.551 191.91 258.454 189.813 255.867 189.813Z" fill="white"/>
<path d="M368.412 189.813H272.756C270.169 189.813 268.072 191.91 268.072 194.497V308.045C268.072 310.632 270.169 312.729 272.756 312.729H368.412C370.999 312.729 373.096 310.632 373.096 308.045V194.497C373.096 191.91 370.999 189.813 368.412 189.813Z" fill="white"/>
<path d="M360.525 111.257C362.582 111.257 364.25 109.589 364.25 107.532C364.25 105.475 362.582 103.808 360.525 103.808C358.468 103.808 356.801 105.475 356.801 107.532C356.801 109.589 358.468 111.257 360.525 111.257Z" fill="#EEEEEE"/>
<path d="M362.58 87.168H279.277C278.355 87.168 277.607 87.9153 277.607 88.8372V92.9476C277.607 93.8695 278.355 94.6168 279.277 94.6168H362.58C363.502 94.6168 364.249 93.8695 364.249 92.9476V88.8372C364.249 87.9153 363.502 87.168 362.58 87.168Z" fill="#F8F8F8"/>
<path d="M351.022 103.808H267.718C266.796 103.808 266.049 104.555 266.049 105.477V109.587C266.049 110.509 266.796 111.257 267.718 111.257H351.022C351.943 111.257 352.691 110.509 352.691 109.587V105.477C352.691 104.555 351.943 103.808 351.022 103.808Z" fill="#F8F8F8"/>
<path d="M57.9725 106.77H74.4976C77.7069 106.77 80.3085 104.169 80.3085 100.959V98.6015C80.3085 95.3922 77.7069 92.7906 74.4976 92.7906H57.9725C54.7632 92.7906 52.1616 95.3922 52.1616 98.6015V100.959C52.1616 104.169 54.7632 106.77 57.9725 106.77Z" fill="#F8F8F8"/>
<path d="M73.0061 105.498C76.1635 105.498 78.7231 102.938 78.7231 99.7807C78.7231 96.6233 76.1635 94.0637 73.0061 94.0637C69.8487 94.0637 67.2891 96.6233 67.2891 99.7807C67.2891 102.938 69.8487 105.498 73.0061 105.498Z" fill="#EEEEEE" stroke="#E6E6E6" stroke-width="0.521625" stroke-miterlimit="10"/>
<path d="M74.5098 148.887H57.9847C54.7755 148.887 52.1738 151.488 52.1738 154.698V157.055C52.1738 160.265 54.7755 162.866 57.9847 162.866H74.5098C77.7191 162.866 80.3207 160.265 80.3207 157.055V154.698C80.3207 151.488 77.7191 148.887 74.5098 148.887Z" fill="#F8F8F8"/>
<path d="M59.4865 161.593C62.644 161.593 65.2036 159.034 65.2036 155.876C65.2036 152.719 62.644 150.159 59.4865 150.159C56.3291 150.159 53.7695 152.719 53.7695 155.876C53.7695 159.034 56.3291 161.593 59.4865 161.593Z" fill="#414772"/>
<path d="M247.351 296.183C246.725 296.183 246.225 296.684 246.225 297.31C246.225 297.936 246.725 298.437 247.351 298.437C247.977 298.437 248.478 297.936 248.478 297.31C248.478 296.684 247.977 296.183 247.351 296.183ZM247.351 297.873C247.038 297.873 246.788 297.623 246.788 297.31C246.788 296.997 247.038 296.746 247.351 296.746C247.664 296.746 247.915 296.997 247.915 297.31C247.915 297.623 247.664 297.873 247.351 297.873Z" fill="#D5D5D5"/>
<path d="M249.97 297.852L249.845 297.779C249.897 297.477 249.897 297.164 249.845 296.851L249.97 296.778C250.377 296.548 250.512 296.027 250.283 295.62C250.053 295.213 249.532 295.077 249.125 295.307L249 295.38C248.76 295.182 248.489 295.025 248.196 294.921V294.775C248.196 294.305 247.821 293.93 247.351 293.93C246.882 293.93 246.506 294.305 246.506 294.775V294.921C246.214 295.025 245.943 295.182 245.703 295.38L245.578 295.307C245.171 295.077 244.66 295.213 244.42 295.62C244.19 296.027 244.326 296.538 244.733 296.778L244.858 296.851C244.806 297.153 244.806 297.466 244.858 297.779L244.733 297.852C244.326 298.082 244.19 298.603 244.42 299.01C244.649 299.417 245.171 299.553 245.578 299.323L245.703 299.25C245.943 299.448 246.214 299.605 246.506 299.709V299.855C246.506 300.325 246.882 300.7 247.351 300.7C247.821 300.7 248.196 300.325 248.196 299.855V299.709C248.489 299.605 248.76 299.448 249 299.25L249.125 299.323C249.532 299.553 250.043 299.417 250.283 299.01C250.512 298.603 250.377 298.092 249.97 297.852ZM249.25 296.788C249.344 297.132 249.344 297.498 249.25 297.842C249.219 297.967 249.271 298.092 249.386 298.165L249.688 298.343C249.824 298.416 249.866 298.593 249.793 298.729C249.72 298.864 249.542 298.906 249.407 298.833L249.104 298.656C248.989 298.593 248.854 298.614 248.76 298.697C248.509 298.958 248.196 299.136 247.852 299.229C247.727 299.261 247.644 299.375 247.644 299.501V299.855C247.644 300.012 247.518 300.137 247.362 300.137C247.205 300.137 247.08 300.012 247.08 299.855V299.501C247.08 299.375 246.997 299.261 246.872 299.229C246.527 299.136 246.214 298.958 245.964 298.697C245.87 298.603 245.734 298.583 245.62 298.656L245.317 298.833C245.181 298.916 245.015 298.864 244.931 298.729C244.848 298.593 244.9 298.426 245.035 298.343L245.338 298.165C245.453 298.103 245.505 297.967 245.474 297.842C245.38 297.498 245.38 297.132 245.474 296.788C245.505 296.663 245.453 296.538 245.338 296.475L245.035 296.298C244.9 296.225 244.858 296.047 244.931 295.912C245.004 295.776 245.181 295.735 245.317 295.808L245.62 295.985C245.734 296.047 245.87 296.027 245.964 295.943C246.214 295.682 246.527 295.505 246.872 295.411C246.997 295.38 247.08 295.265 247.08 295.14V294.785C247.08 294.629 247.205 294.503 247.362 294.503C247.518 294.503 247.644 294.629 247.644 294.785V295.14C247.644 295.265 247.727 295.38 247.852 295.411C248.196 295.505 248.509 295.682 248.76 295.943C248.854 296.037 248.989 296.058 249.104 295.985L249.407 295.808C249.542 295.724 249.709 295.776 249.793 295.912C249.876 296.047 249.824 296.214 249.688 296.298L249.386 296.475C249.271 296.538 249.219 296.673 249.261 296.788H249.25Z" fill="#D5D5D5"/>
<path d="M363.114 164.974C363.114 165.109 363 165.224 362.864 165.224H362.353C362.217 165.224 362.102 165.109 362.102 164.974C362.102 164.838 362.217 164.723 362.353 164.723H362.864C363 164.723 363.114 164.838 363.114 164.974ZM364.251 164.723V165.986C364.251 166.549 363.792 166.998 363.239 166.998H359.192C358.628 166.998 358.18 166.539 358.18 165.986V164.723C358.18 164.16 358.639 163.712 359.192 163.712H359.442V161.938C359.442 161.375 359.901 160.926 360.454 160.926H361.977C362.54 160.926 362.989 161.385 362.989 161.938V163.712H363.239C363.803 163.712 364.251 164.171 364.251 164.723ZM359.943 163.712H362.478V161.938C362.478 161.656 362.248 161.427 361.967 161.427H360.444C360.162 161.427 359.932 161.656 359.932 161.938V163.712H359.943ZM359.192 166.487H360.965V164.212H359.192C358.91 164.212 358.68 164.442 358.68 164.723V165.986C358.68 166.267 358.91 166.497 359.192 166.497V166.487ZM363.74 164.723C363.74 164.442 363.511 164.212 363.229 164.212H361.456V166.487H363.229C363.511 166.487 363.74 166.257 363.74 165.975V164.713V164.723ZM360.068 164.723H359.557C359.421 164.723 359.306 164.838 359.306 164.974C359.306 165.109 359.421 165.224 359.557 165.224H360.068C360.204 165.224 360.318 165.109 360.318 164.974C360.318 164.838 360.204 164.723 360.068 164.723ZM361.716 162.188C361.716 162.053 361.602 161.938 361.466 161.938H360.955C360.819 161.938 360.704 162.053 360.704 162.188C360.704 162.324 360.819 162.439 360.955 162.439H361.466C361.602 162.439 361.716 162.324 361.716 162.188Z" fill="#D5D5D5"/>
<path d="M57.9725 305.374H74.4976C77.7069 305.374 80.3085 302.772 80.3085 299.563V297.205C80.3085 293.996 77.7069 291.394 74.4976 291.394H57.9725C54.7632 291.394 52.1616 293.996 52.1616 297.205V299.563C52.1616 302.772 54.7632 305.374 57.9725 305.374Z" fill="#F8F8F8"/>
<path d="M73.0061 304.112C76.1635 304.112 78.7231 301.552 78.7231 298.395C78.7231 295.237 76.1635 292.678 73.0061 292.678C69.8487 292.678 67.2891 295.237 67.2891 298.395C67.2891 301.552 69.8487 304.112 73.0061 304.112Z" fill="#EEEEEE" stroke="#E6E6E6" stroke-width="0.521625" stroke-miterlimit="10"/>
<path d="M95.4888 245.387C104.2 245.387 111.263 238.325 111.263 229.613C111.263 220.902 104.2 213.839 95.4888 213.839C86.7771 213.839 79.7148 220.902 79.7148 229.613C79.7148 238.325 86.7771 245.387 95.4888 245.387Z" fill="#EEEEEE"/>
<path d="M137.145 251.271H53.8411C52.9192 251.271 52.1719 252.019 52.1719 252.94V257.051C52.1719 257.973 52.9192 258.72 53.8411 258.72H137.145C138.066 258.72 138.814 257.973 138.814 257.051V252.94C138.814 252.019 138.066 251.271 137.145 251.271Z" fill="#F8F8F8"/>
<path d="M134.453 302.119C136.51 302.119 138.177 300.452 138.177 298.395C138.177 296.338 136.51 294.67 134.453 294.67C132.396 294.67 130.729 296.338 130.729 298.395C130.729 300.452 132.396 302.119 134.453 302.119Z" fill="#EEEEEE"/>
<path d="M124.95 294.67H90.304C89.3821 294.67 88.6348 295.418 88.6348 296.34V300.45C88.6348 301.372 89.3821 302.119 90.304 302.119H124.95C125.872 302.119 126.62 301.372 126.62 300.45V296.34C126.62 295.418 125.872 294.67 124.95 294.67Z" fill="#F8F8F8"/>
<path d="M186.082 291.405H169.557C166.348 291.405 163.746 294.007 163.746 297.216V299.574C163.746 302.783 166.348 305.385 169.557 305.385H186.082C189.291 305.385 191.893 302.783 191.893 299.574V297.216C191.893 294.007 189.291 291.405 186.082 291.405Z" fill="white" stroke="#E6E6E6" stroke-width="0.521625" stroke-miterlimit="10"/>
<path d="M171.059 304.112C174.216 304.112 176.776 301.552 176.776 298.395C176.776 295.237 174.216 292.678 171.059 292.678C167.901 292.678 165.342 295.237 165.342 298.395C165.342 301.552 167.901 304.112 171.059 304.112Z" fill="#414772"/>
<path d="M283.422 305.374H299.947C303.156 305.374 305.758 302.773 305.758 299.563V297.206C305.758 293.996 303.156 291.395 299.947 291.395H283.422C280.213 291.395 277.611 293.996 277.611 297.206V299.563C277.611 302.773 280.213 305.374 283.422 305.374Z" fill="#F8F8F8"/>
<path d="M298.444 304.112C301.601 304.112 304.161 301.552 304.161 298.395C304.161 295.238 301.601 292.678 298.444 292.678C295.286 292.678 292.727 295.238 292.727 298.395C292.727 301.552 295.286 304.112 298.444 304.112Z" fill="#EEEEEE" stroke="#E6E6E6" stroke-width="0.521625" stroke-miterlimit="10"/>
<path d="M320.926 245.387C329.638 245.387 336.7 238.325 336.7 229.613C336.7 220.902 329.638 213.839 320.926 213.839C312.215 213.839 305.152 220.902 305.152 229.613C305.152 238.325 312.215 245.387 320.926 245.387Z" fill="#EEEEEE"/>
<path d="M207.774 245.387C216.486 245.387 223.548 238.325 223.548 229.613C223.548 220.902 216.486 213.839 207.774 213.839C199.063 213.839 192 220.902 192 229.613C192 238.325 199.063 245.387 207.774 245.387Z" fill="#EEEEEE"/>
<path d="M362.582 251.271H279.279C278.357 251.271 277.609 252.019 277.609 252.94V257.051C277.609 257.973 278.357 258.72 279.279 258.72H362.582C363.504 258.72 364.251 257.973 364.251 257.051V252.94C364.251 252.019 363.504 251.271 362.582 251.271Z" fill="#F8F8F8"/>
<path d="M359.89 302.119C361.947 302.119 363.615 300.452 363.615 298.395C363.615 296.338 361.947 294.67 359.89 294.67C357.833 294.67 356.166 296.338 356.166 298.395C356.166 300.452 357.833 302.119 359.89 302.119Z" fill="#EEEEEE"/>
<path d="M350.386 294.67H315.74C314.818 294.67 314.07 295.418 314.07 296.34V300.45C314.07 301.372 314.818 302.119 315.74 302.119H350.386C351.308 302.119 352.055 301.372 352.055 300.45V296.34C352.055 295.418 351.308 294.67 350.386 294.67Z" fill="#F8F8F8"/>
<path d="M109.602 337.12H55.4368C54.5149 337.12 53.7676 337.868 53.7676 338.79V345.654C53.7676 346.576 54.5149 347.323 55.4368 347.323H109.602C110.524 347.323 111.272 346.576 111.272 345.654V338.79C111.272 337.868 110.524 337.12 109.602 337.12Z" fill="#F8F8F8"/>
<path d="M193.929 337.12H139.763C138.841 337.12 138.094 337.868 138.094 338.79V345.654C138.094 346.576 138.841 347.323 139.763 347.323H193.929C194.85 347.323 195.598 346.576 195.598 345.654V338.79C195.598 337.868 194.85 337.12 193.929 337.12Z" fill="#F8F8F8"/>
<path d="M278.255 337.12H224.089C223.167 337.12 222.42 337.868 222.42 338.79V345.654C222.42 346.576 223.167 347.323 224.089 347.323H278.255C279.177 347.323 279.924 346.576 279.924 345.654V338.79C279.924 337.868 279.177 337.12 278.255 337.12Z" fill="#F8F8F8"/>
<path d="M362.581 337.12H308.415C307.493 337.12 306.746 337.868 306.746 338.79V345.654C306.746 346.576 307.493 347.323 308.415 347.323H362.581C363.503 347.323 364.25 346.576 364.25 345.654V338.79C364.25 337.868 363.503 337.12 362.581 337.12Z" fill="#F8F8F8"/>
<path d="M46.8614 65.0301C49.0047 65.0301 50.7423 63.2926 50.7423 61.1492C50.7423 59.0058 49.0047 57.2683 46.8614 57.2683C44.718 57.2683 42.9805 59.0058 42.9805 61.1492C42.9805 63.2926 44.718 65.0301 46.8614 65.0301Z" fill="#E85254"/>
<path d="M58.1797 65.0301C60.3231 65.0301 62.0606 63.2926 62.0606 61.1492C62.0606 59.0058 60.3231 57.2683 58.1797 57.2683C56.0364 57.2683 54.2988 59.0058 54.2988 61.1492C54.2988 63.2926 56.0364 65.0301 58.1797 65.0301Z" fill="#FD9C06"/>
<path d="M69.5 65.0301C71.6434 65.0301 73.3809 63.2926 73.3809 61.1492C73.3809 59.0058 71.6434 57.2683 69.5 57.2683C67.3567 57.2683 65.6191 59.0058 65.6191 61.1492C65.6191 63.2926 67.3567 65.0301 69.5 65.0301Z" fill="#29C56D"/>
<path d="M452.393 128.992C462.914 128.992 471.443 120.463 471.443 109.942C471.443 99.4212 462.914 90.8923 452.393 90.8923C441.873 90.8923 433.344 99.4212 433.344 109.942C433.344 120.463 441.873 128.992 452.393 128.992Z" fill="#EEEEEE"/>
<path d="M456.473 102.942H448.315C446.708 102.942 445.404 104.246 445.404 105.853V114.011C445.404 115.617 446.708 116.921 448.315 116.921H456.473C458.08 116.921 459.384 115.617 459.384 114.011V105.853C459.384 104.246 458.08 102.942 456.473 102.942ZM448.315 104.11H456.473C457.443 104.11 458.226 104.893 458.226 105.863V114.021C458.226 114.282 458.163 114.532 458.048 114.772L452.707 109.431C451.57 108.294 449.723 108.294 448.586 109.431L446.562 111.455V105.863C446.562 104.893 447.345 104.11 448.315 104.11ZM448.315 115.774C447.345 115.774 446.562 114.991 446.562 114.021V113.093L449.41 110.245C450.088 109.566 451.205 109.556 451.883 110.245L457.224 115.586C456.995 115.701 456.734 115.763 456.473 115.763H448.315V115.774Z" fill="#D5D5D5"/>
<path d="M454.721 109.066C455.847 109.066 456.765 108.148 456.765 107.021C456.765 105.894 455.847 104.976 454.721 104.976C453.594 104.976 452.676 105.894 452.676 107.021C452.676 108.148 453.594 109.066 454.721 109.066ZM454.721 106.155C455.2 106.155 455.597 106.551 455.597 107.031C455.597 107.511 455.2 107.908 454.721 107.908C454.241 107.908 453.844 107.511 453.844 107.031C453.844 106.551 454.241 106.155 454.721 106.155Z" fill="#D5D5D5"/>
</g>
<g clip-path="url(#clip1_43_4)">
<g filter="url(#filter1_d_43_4)">
<path d="M353 348.625H289C280.163 348.625 273 355.788 273 364.625V388.625C273 397.462 280.163 404.625 289 404.625H353C361.837 404.625 369 397.462 369 388.625V364.625C369 355.788 361.837 348.625 353 348.625Z" fill="white"/>
<path d="M294 373.625C294 370.325 294 368.675 295.025 367.65C296.05 366.625 297.7 366.625 301 366.625C304.3 366.625 305.95 366.625 306.975 367.65C308 368.675 308 370.325 308 373.625V379.625C308 382.925 308 384.575 306.975 385.6C305.95 386.625 304.3 386.625 301 386.625C297.7 386.625 296.05 386.625 295.025 385.6C294 384.575 294 382.925 294 379.625V373.625Z" stroke="#999999" stroke-width="1.5" stroke-linecap="round"/>
<path d="M300 383.625H302" stroke="#999999" stroke-width="1.5" stroke-linecap="round" stroke-linejoin="round"/>
<path d="M298 366.625L298.089 367.159C298.282 368.316 298.378 368.895 298.775 369.247C299.189 369.614 299.776 369.625 301 369.625C302.224 369.625 302.811 369.614 303.225 369.247C303.622 368.895 303.718 368.316 303.911 367.159L304 366.625" stroke="#999999" stroke-width="1.5" stroke-linejoin="round"/>
<path fill-rule="evenodd" clip-rule="evenodd" d="M340.996 369.625C340.446 369.625 340 370.073 340 370.625C340 371.177 340.446 371.625 340.996 371.625H341.004C341.554 371.625 342 371.177 342 370.625C342 370.073 341.554 369.625 341.004 369.625H340.996Z" fill="#73E7CC"/>
<path fill-rule="evenodd" clip-rule="evenodd" d="M334.922 366.457C335.534 366.375 336.298 366.375 337.184 366.375H344.816C345.702 366.375 346.466 366.375 347.078 366.457C347.733 366.545 348.361 366.744 348.871 367.254C349.381 367.763 349.579 368.392 349.668 369.047C349.75 369.659 349.75 370.423 349.75 371.309V378.875V378.916C349.751 378.968 349.757 378.993 349.78 379.039L349.79 379.059L350.166 379.79C350.89 381.126 351.377 382.19 351.603 383.074C351.835 383.983 351.807 384.774 351.413 385.491C350.972 386.291 350.185 386.603 349.302 386.741C348.448 386.875 347.309 386.875 345.913 386.875H341H336.087C334.69 386.875 333.552 386.875 332.698 386.741C331.815 386.603 331.027 386.291 330.587 385.491C330.193 384.774 330.165 383.983 330.397 383.074C330.623 382.19 331.11 381.126 331.834 379.79L332.21 379.059L332.22 379.039C332.242 378.993 332.249 378.968 332.25 378.916V378.875V371.309C332.25 370.423 332.25 369.659 332.332 369.047C332.42 368.392 332.619 367.763 333.129 367.254C333.638 366.744 334.267 366.545 334.922 366.457ZM334.25 371.375V377.775C334.25 378.058 334.25 378.199 334.338 378.287C334.426 378.375 334.567 378.375 334.85 378.375H341H347.15C347.433 378.375 347.574 378.375 347.662 378.287C347.75 378.199 347.75 378.058 347.75 377.775V371.375C347.75 370.404 347.748 369.776 347.685 369.314C347.627 368.88 347.533 368.744 347.457 368.668C347.381 368.592 347.245 368.498 346.811 368.439C346.349 368.377 345.721 368.375 344.75 368.375H337.25C336.279 368.375 335.651 368.377 335.189 368.439C334.755 368.498 334.619 368.592 334.543 368.668C334.467 368.744 334.373 368.88 334.314 369.314C334.252 369.776 334.25 370.404 334.25 371.375Z" fill="#414772"/>
</g>
<g filter="url(#filter2_d_43_4)">
<path d="M299 19H127C118.163 19 111 26.1634 111 35V103C111 111.837 118.163 119 127 119H299C307.837 119 315 111.837 315 103V35C315 26.1634 307.837 19 299 19Z" fill="white"/>
<g filter="url(#filter3_d_43_4)">
<path d="M141 63C148.732 63 155 56.732 155 49C155 41.268 148.732 35 141 35C133.268 35 127 41.268 127 49C127 56.732 133.268 63 141 63Z" fill="#FFBF69"/>
<path d="M141 61C147.627 61 153 55.6274 153 49C153 42.3726 147.627 37 141 37C134.373 37 129 42.3726 129 49C129 55.6274 134.373 61 141 61Z" stroke="white" stroke-width="4"/>
</g>
<g filter="url(#filter4_d_43_4)">
<path d="M189 63C196.732 63 203 56.732 203 49C203 41.268 196.732 35 189 35C181.268 35 175 41.268 175 49C175 56.732 181.268 63 189 63Z" fill="#414772"/>
<path d="M189 61C195.627 61 201 55.6274 201 49C201 42.3726 195.627 37 189 37C182.373 37 177 42.3726 177 49C177 55.6274 182.373 61 189 61Z" fill="#414772" stroke="white" stroke-width="4"/>
</g>
<path d="M184.332 50.7083L186.665 53.0416L193.665 45.7083" stroke="white" stroke-width="1.5" stroke-linecap="round" stroke-linejoin="round"/>
<g filter="url(#filter5_d_43_4)">
<path d="M237 63C244.732 63 251 56.732 251 49C251 41.268 244.732 35 237 35C229.268 35 223 41.268 223 49C223 56.732 229.268 63 237 63Z" fill="#95C8D0"/>
<path d="M237 61C243.627 61 249 55.6274 249 49C249 42.3726 243.627 37 237 37C230.373 37 225 42.3726 225 49C225 55.6274 230.373 61 237 61Z" stroke="white" stroke-width="4"/>
</g>
<g filter="url(#filter6_d_43_4)">
<path d="M285 63C292.732 63 299 56.732 299 49C299 41.268 292.732 35 285 35C277.268 35 271 41.268 271 49C271 56.732 277.268 63 285 63Z" fill="#008C56"/>
<path d="M285 61C291.627 61 297 55.6274 297 49C297 42.3726 291.627 37 285 37C278.373 37 273 42.3726 273 49C273 55.6274 278.373 61 285 61Z" stroke="white" stroke-width="4"/>
</g>
<g filter="url(#filter7_d_43_4)">
<path d="M141 103C148.732 103 155 96.732 155 89C155 81.268 148.732 75 141 75C133.268 75 127 81.268 127 89C127 96.732 133.268 103 141 103Z" fill="#82DFBB"/>
<path d="M141 101C147.627 101 153 95.6274 153 89C153 82.3726 147.627 77 141 77C134.373 77 129 82.3726 129 89C129 95.6274 134.373 101 141 101Z" stroke="white" stroke-width="4"/>
</g>
<g filter="url(#filter8_d_43_4)">
<path d="M189 103C196.732 103 203 96.732 203 89C203 81.268 196.732 75 189 75C181.268 75 175 81.268 175 89C175 96.732 181.268 103 189 103Z" fill="#F77479"/>
<path d="M189 101C195.627 101 201 95.6274 201 89C201 82.3726 195.627 77 189 77C182.373 77 177 82.3726 177 89C177 95.6274 182.373 101 189 101Z" stroke="white" stroke-width="4"/>
</g>
<g filter="url(#filter9_d_43_4)">
<path d="M237 103C244.732 103 251 96.732 251 89C251 81.268 244.732 75 237 75C229.268 75 223 81.268 223 89C223 96.732 229.268 103 237 103Z" fill="#97C0F8"/>
<path d="M237 101C243.627 101 249 95.6274 249 89C249 82.3726 243.627 77 237 77C230.373 77 225 82.3726 225 89C225 95.6274 230.373 101 237 101Z" stroke="white" stroke-width="4"/>
</g>
<g filter="url(#filter10_d_43_4)">
<path d="M285 103C292.732 103 299 96.732 299 89C299 81.268 292.732 75 285 75C277.268 75 271 81.268 271 89C271 96.732 277.268 103 285 103Z" fill="#D18F36"/>
<path d="M285 101C291.627 101 297 95.6274 297 89C297 82.3726 291.627 77 285 77C278.373 77 273 82.3726 273 89C273 95.6274 278.373 101 285 101Z" stroke="white" stroke-width="4"/>
</g>
</g>
</g>
<defs>
<filter id="filter0_d_43_4" x="0.374109" y="20.7547" width="560.403" height="392.221" filterUnits="userSpaceOnUse" color-interpolation-filters="sRGB">
<feFlood flood-opacity="0" result="BackgroundImageFix"/>
<feColorMatrix in="SourceAlpha" type="matrix" values="0 0 0 0 0 0 0 0 0 0 0 0 0 0 0 0 0 0 127 0" result="hardAlpha"/>
<feOffset dy="5.21625"/>
<feGaussianBlur stdDeviation="12.519"/>
<feComposite in2="hardAlpha" operator="out"/>
<feColorMatrix type="matrix" values="0 0 0 0 0 0 0 0 0 0 0 0 0 0 0 0 0 0 0.08 0"/>
<feBlend mode="normal" in2="BackgroundImageFix" result="effect1_dropShadow_43_4"/>
<feBlend mode="normal" in="SourceGraphic" in2="effect1_dropShadow_43_4" result="shape"/>
</filter>
<filter id="filter1_d_43_4" x="249" y="329.625" width="144" height="104" filterUnits="userSpaceOnUse" color-interpolation-filters="sRGB">
<feFlood flood-opacity="0" result="BackgroundImageFix"/>
<feColorMatrix in="SourceAlpha" type="matrix" values="0 0 0 0 0 0 0 0 0 0 0 0 0 0 0 0 0 0 127 0" result="hardAlpha"/>
<feOffset dy="5"/>
<feGaussianBlur stdDeviation="12"/>
<feComposite in2="hardAlpha" operator="out"/>
<feColorMatrix type="matrix" values="0 0 0 0 0 0 0 0 0 0 0 0 0 0 0 0 0 0 0.08 0"/>
<feBlend mode="normal" in2="BackgroundImageFix" result="effect1_dropShadow_43_4"/>
<feBlend mode="normal" in="SourceGraphic" in2="effect1_dropShadow_43_4" result="shape"/>
</filter>
<filter id="filter2_d_43_4" x="87" y="0" width="252" height="148" filterUnits="userSpaceOnUse" color-interpolation-filters="sRGB">
<feFlood flood-opacity="0" result="BackgroundImageFix"/>
<feColorMatrix in="SourceAlpha" type="matrix" values="0 0 0 0 0 0 0 0 0 0 0 0 0 0 0 0 0 0 127 0" result="hardAlpha"/>
<feOffset dy="5"/>
<feGaussianBlur stdDeviation="12"/>
<feComposite in2="hardAlpha" operator="out"/>
<feColorMatrix type="matrix" values="0 0 0 0 0 0 0 0 0 0 0 0 0 0 0 0 0 0 0.08 0"/>
<feBlend mode="normal" in2="BackgroundImageFix" result="effect1_dropShadow_43_4"/>
<feBlend mode="normal" in="SourceGraphic" in2="effect1_dropShadow_43_4" result="shape"/>
</filter>
<filter id="filter3_d_43_4" x="111" y="27" width="60" height="60" filterUnits="userSpaceOnUse" color-interpolation-filters="sRGB">
<feFlood flood-opacity="0" result="BackgroundImageFix"/>
<feColorMatrix in="SourceAlpha" type="matrix" values="0 0 0 0 0 0 0 0 0 0 0 0 0 0 0 0 0 0 127 0" result="hardAlpha"/>
<feOffset dy="8"/>
<feGaussianBlur stdDeviation="8"/>
<feComposite in2="hardAlpha" operator="out"/>
<feColorMatrix type="matrix" values="0 0 0 0 0 0 0 0 0 0 0 0 0 0 0 0 0 0 0.12 0"/>
<feBlend mode="normal" in2="BackgroundImageFix" result="effect1_dropShadow_43_4"/>
<feBlend mode="normal" in="SourceGraphic" in2="effect1_dropShadow_43_4" result="shape"/>
</filter>
<filter id="filter4_d_43_4" x="159" y="27" width="60" height="60" filterUnits="userSpaceOnUse" color-interpolation-filters="sRGB">
<feFlood flood-opacity="0" result="BackgroundImageFix"/>
<feColorMatrix in="SourceAlpha" type="matrix" values="0 0 0 0 0 0 0 0 0 0 0 0 0 0 0 0 0 0 127 0" result="hardAlpha"/>
<feOffset dy="8"/>
<feGaussianBlur stdDeviation="8"/>
<feComposite in2="hardAlpha" operator="out"/>
<feColorMatrix type="matrix" values="0 0 0 0 0 0 0 0 0 0 0 0 0 0 0 0 0 0 0.12 0"/>
<feBlend mode="normal" in2="BackgroundImageFix" result="effect1_dropShadow_43_4"/>
<feBlend mode="normal" in="SourceGraphic" in2="effect1_dropShadow_43_4" result="shape"/>
</filter>
<filter id="filter5_d_43_4" x="207" y="27" width="60" height="60" filterUnits="userSpaceOnUse" color-interpolation-filters="sRGB">
<feFlood flood-opacity="0" result="BackgroundImageFix"/>
<feColorMatrix in="SourceAlpha" type="matrix" values="0 0 0 0 0 0 0 0 0 0 0 0 0 0 0 0 0 0 127 0" result="hardAlpha"/>
<feOffset dy="8"/>
<feGaussianBlur stdDeviation="8"/>
<feComposite in2="hardAlpha" operator="out"/>
<feColorMatrix type="matrix" values="0 0 0 0 0 0 0 0 0 0 0 0 0 0 0 0 0 0 0.12 0"/>
<feBlend mode="normal" in2="BackgroundImageFix" result="effect1_dropShadow_43_4"/>
<feBlend mode="normal" in="SourceGraphic" in2="effect1_dropShadow_43_4" result="shape"/>
</filter>
<filter id="filter6_d_43_4" x="255" y="27" width="60" height="60" filterUnits="userSpaceOnUse" color-interpolation-filters="sRGB">
<feFlood flood-opacity="0" result="BackgroundImageFix"/>
<feColorMatrix in="SourceAlpha" type="matrix" values="0 0 0 0 0 0 0 0 0 0 0 0 0 0 0 0 0 0 127 0" result="hardAlpha"/>
<feOffset dy="8"/>
<feGaussianBlur stdDeviation="8"/>
<feComposite in2="hardAlpha" operator="out"/>
<feColorMatrix type="matrix" values="0 0 0 0 0 0 0 0 0 0 0 0 0 0 0 0 0 0 0.12 0"/>
<feBlend mode="normal" in2="BackgroundImageFix" result="effect1_dropShadow_43_4"/>
<feBlend mode="normal" in="SourceGraphic" in2="effect1_dropShadow_43_4" result="shape"/>
</filter>
<filter id="filter7_d_43_4" x="111" y="67" width="60" height="60" filterUnits="userSpaceOnUse" color-interpolation-filters="sRGB">
<feFlood flood-opacity="0" result="BackgroundImageFix"/>
<feColorMatrix in="SourceAlpha" type="matrix" values="0 0 0 0 0 0 0 0 0 0 0 0 0 0 0 0 0 0 127 0" result="hardAlpha"/>
<feOffset dy="8"/>
<feGaussianBlur stdDeviation="8"/>
<feComposite in2="hardAlpha" operator="out"/>
<feColorMatrix type="matrix" values="0 0 0 0 0 0 0 0 0 0 0 0 0 0 0 0 0 0 0.12 0"/>
<feBlend mode="normal" in2="BackgroundImageFix" result="effect1_dropShadow_43_4"/>
<feBlend mode="normal" in="SourceGraphic" in2="effect1_dropShadow_43_4" result="shape"/>
</filter>
<filter id="filter8_d_43_4" x="159" y="67" width="60" height="60" filterUnits="userSpaceOnUse" color-interpolation-filters="sRGB">
<feFlood flood-opacity="0" result="BackgroundImageFix"/>
<feColorMatrix in="SourceAlpha" type="matrix" values="0 0 0 0 0 0 0 0 0 0 0 0 0 0 0 0 0 0 127 0" result="hardAlpha"/>
<feOffset dy="8"/>
<feGaussianBlur stdDeviation="8"/>
<feComposite in2="hardAlpha" operator="out"/>
<feColorMatrix type="matrix" values="0 0 0 0 0 0 0 0 0 0 0 0 0 0 0 0 0 0 0.12 0"/>
<feBlend mode="normal" in2="BackgroundImageFix" result="effect1_dropShadow_43_4"/>
<feBlend mode="normal" in="SourceGraphic" in2="effect1_dropShadow_43_4" result="shape"/>
</filter>
<filter id="filter9_d_43_4" x="207" y="67" width="60" height="60" filterUnits="userSpaceOnUse" color-interpolation-filters="sRGB">
<feFlood flood-opacity="0" result="BackgroundImageFix"/>
<feColorMatrix in="SourceAlpha" type="matrix" values="0 0 0 0 0 0 0 0 0 0 0 0 0 0 0 0 0 0 127 0" result="hardAlpha"/>
<feOffset dy="8"/>
<feGaussianBlur stdDeviation="8"/>
<feComposite in2="hardAlpha" operator="out"/>
<feColorMatrix type="matrix" values="0 0 0 0 0 0 0 0 0 0 0 0 0 0 0 0 0 0 0.12 0"/>
<feBlend mode="normal" in2="BackgroundImageFix" result="effect1_dropShadow_43_4"/>
<feBlend mode="normal" in="SourceGraphic" in2="effect1_dropShadow_43_4" result="shape"/>
</filter>
<filter id="filter10_d_43_4" x="255" y="67" width="60" height="60" filterUnits="userSpaceOnUse" color-interpolation-filters="sRGB">
<feFlood flood-opacity="0" result="BackgroundImageFix"/>
<feColorMatrix in="SourceAlpha" type="matrix" values="0 0 0 0 0 0 0 0 0 0 0 0 0 0 0 0 0 0 127 0" result="hardAlpha"/>
<feOffset dy="8"/>
<feGaussianBlur stdDeviation="8"/>
<feComposite in2="hardAlpha" operator="out"/>
<feColorMatrix type="matrix" values="0 0 0 0 0 0 0 0 0 0 0 0 0 0 0 0 0 0 0.12 0"/>
<feBlend mode="normal" in2="BackgroundImageFix" result="effect1_dropShadow_43_4"/>
<feBlend mode="normal" in="SourceGraphic" in2="effect1_dropShadow_43_4" result="shape"/>
</filter>
<clipPath id="clip0_43_4">
<rect width="561" height="393" fill="white" transform="translate(0 20)"/>
</clipPath>
<clipPath id="clip1_43_4">
<rect width="306" height="434" fill="white" transform="translate(87)"/>
</clipPath>
</defs>
</svg>
