<svg width="108" height="107" viewBox="0 0 108 107" fill="none" xmlns="http://www.w3.org/2000/svg">
<path d="M104.528 2.625L68.5073 102.375C68.2642 102.906 67.8738 103.355 67.3827 103.67C66.8915 103.986 66.3201 104.153 65.7365 104.153C65.1529 104.153 64.5815 103.986 64.0903 103.67C63.5992 103.355 63.2088 102.906 62.9657 102.375L43.5698 63.5833L4.77816 44.1875C4.24759 43.9444 3.79799 43.554 3.48277 43.0628C3.16756 42.5716 3 42.0003 3 41.4167C3 40.833 3.16756 40.2617 3.48277 39.7705C3.79799 39.2793 4.24759 38.889 4.77816 38.6458L104.528 2.625Z" stroke="#414772" stroke-width="5" stroke-linecap="round" stroke-linejoin="round"/>
</svg>
