<svg width="105" height="83" viewBox="0 0 105 83" fill="none" xmlns="http://www.w3.org/2000/svg">
<path d="M2.625 13.7916C2.625 10.8522 3.7927 8.03307 5.87123 5.95455C7.94976 3.87602 10.7689 2.70831 13.7083 2.70831H91.2917C94.2311 2.70831 97.0502 3.87602 99.1288 5.95455C101.207 8.03307 102.375 10.8522 102.375 13.7916V69.2083C102.375 72.1478 101.207 74.9669 99.1288 77.0454C97.0502 79.1239 94.2311 80.2917 91.2917 80.2917H13.7083C10.7689 80.2917 7.94976 79.1239 5.87123 77.0454C3.7927 74.9669 2.625 72.1478 2.625 69.2083V13.7916Z" stroke="#414772" stroke-width="5" stroke-linecap="round" stroke-linejoin="round"/>
<path d="M2.625 13.7917L52.5 47.0417L102.375 13.7917" stroke="#414772" stroke-width="5" stroke-linecap="round" stroke-linejoin="round"/>
</svg>
