<svg width="122" height="122" viewBox="0 0 122 122" fill="none" xmlns="http://www.w3.org/2000/svg">
<circle cx="61" cy="61" r="61" fill="#414772"/>
<path d="M45.13 72.184C45.0447 71.7573 45.2153 71.5013 45.642 71.416L55.818 70.008C56.2447 69.9653 56.5007 70.1573 56.586 70.584C56.7993 71.48 57.226 72.2053 57.866 72.76C58.506 73.272 59.3167 73.528 60.298 73.528C61.3647 73.528 62.1967 73.208 62.794 72.568C63.434 71.8853 63.754 70.9253 63.754 69.688C63.754 68.408 63.3913 67.448 62.666 66.808C61.9407 66.1253 60.9593 65.784 59.722 65.784H57.994C57.5673 65.784 57.354 65.5707 57.354 65.144V56.376C57.354 55.9493 57.5673 55.736 57.994 55.736H59.594C60.7033 55.736 61.5567 55.4373 62.154 54.84C62.7513 54.2427 63.05 53.3893 63.05 52.28C63.05 51.2133 62.7513 50.4027 62.154 49.848C61.5993 49.2507 60.8527 48.952 59.914 48.952C59.018 48.952 58.314 49.2293 57.802 49.784C57.29 50.296 56.9273 51 56.714 51.896C56.6287 52.3227 56.394 52.4933 56.01 52.408L45.834 51.064C45.4073 50.9787 45.2367 50.744 45.322 50.36C45.6207 48.6533 46.154 47.096 46.922 45.688C47.7327 44.2373 48.778 43 50.058 41.976C51.338 40.952 52.8527 40.1627 54.602 39.608C56.394 39.0107 58.4207 38.712 60.682 38.712C63.0287 38.712 65.1193 39.032 66.954 39.672C68.7887 40.2693 70.3247 41.1227 71.562 42.232C72.842 43.2987 73.802 44.5787 74.442 46.072C75.1247 47.5227 75.466 49.08 75.466 50.744C75.466 52.7067 75.018 54.4347 74.122 55.928C73.226 57.4213 72.0313 58.6587 70.538 59.64V59.768C71.306 60.1947 72.0313 60.7067 72.714 61.304C73.3967 61.9013 73.994 62.6267 74.506 63.48C75.018 64.2907 75.4233 65.2507 75.722 66.36C76.0207 67.4693 76.17 68.7493 76.17 70.2C76.17 72.2053 75.786 74.04 75.018 75.704C74.2927 77.3253 73.2473 78.7547 71.882 79.992C70.5593 81.1867 68.938 82.1253 67.018 82.808C65.1407 83.448 63.05 83.768 60.746 83.768C56.266 83.768 52.6607 82.7227 49.93 80.632C47.1993 78.4987 45.5993 75.6827 45.13 72.184Z" fill="white"/>
</svg>
