<svg width="122" height="122" viewBox="0 0 122 122" fill="none" xmlns="http://www.w3.org/2000/svg">
<circle cx="61" cy="61" r="61" fill="#414772"/>
<path d="M46.322 73.784C46.322 73.4427 46.4287 73.144 46.642 72.888L61.938 56.952C62.7487 56.0987 63.3033 55.3307 63.602 54.648C63.9433 53.9227 64.114 53.1333 64.114 52.28C64.114 50.0613 63.1327 48.952 61.17 48.952C60.2313 48.952 59.442 49.272 58.802 49.912C58.2047 50.552 57.842 51.7467 57.714 53.496C57.714 53.9653 57.4793 54.1573 57.01 54.072L46.962 52.728C46.578 52.6853 46.386 52.4507 46.386 52.024C46.4713 50.0187 46.9193 48.2053 47.73 46.584C48.5407 44.92 49.6287 43.512 50.994 42.36C52.3593 41.208 53.9593 40.312 55.794 39.672C57.6713 39.032 59.6767 38.712 61.81 38.712C63.9433 38.712 65.906 39.032 67.698 39.672C69.5327 40.312 71.09 41.208 72.37 42.36C73.6927 43.512 74.7167 44.8987 75.442 46.52C76.1673 48.0987 76.53 49.8267 76.53 51.704C76.53 54.136 76.0607 56.2693 75.122 58.104C74.226 59.896 72.9673 61.6027 71.346 63.224L62.386 72.376V72.504H75.89C76.3167 72.504 76.53 72.7173 76.53 73.144V82.36C76.53 82.7867 76.3167 83 75.89 83H46.962C46.5353 83 46.322 82.7867 46.322 82.36V73.784Z" fill="white"/>
</svg>
