<svg width="72" height="105" viewBox="0 0 72 105" fill="none" xmlns="http://www.w3.org/2000/svg">
<path d="M3 13.7083C3 10.7689 4.1677 7.94976 6.24623 5.87123C8.32476 3.7927 11.1439 2.625 14.0833 2.625H58.4167C61.3561 2.625 64.1752 3.7927 66.2538 5.87123C68.3323 7.94976 69.5 10.7689 69.5 13.7083V91.2917C69.5 94.2311 68.3323 97.0502 66.2538 99.1288C64.1752 101.207 61.3561 102.375 58.4167 102.375H14.0833C11.1439 102.375 8.32476 101.207 6.24623 99.1288C4.1677 97.0502 3 94.2311 3 91.2917V13.7083Z" stroke="#414772" stroke-width="5" stroke-linecap="round" stroke-linejoin="round"/>
<path d="M31 15.1666H42.0833" stroke="#414772" stroke-width="5" stroke-linecap="round" stroke-linejoin="round"/>
<path d="M37 90.2084V90.2638" stroke="#414772" stroke-width="5" stroke-linecap="round" stroke-linejoin="round"/>
</svg>
